<?xml version="1.0" encoding="utf-8" ?>
<svg baseProfile="tiny" height="502.5" version="1.2" width="502.5" xmlns="http://www.w3.org/2000/svg" xmlns:ev="http://www.w3.org/2001/xml-events" xmlns:xlink="http://www.w3.org/1999/xlink"><defs /><circle cx="251.25" cy="251.25" fill="none" r="250.0" stroke="black" stroke-width="2.5" /><circle cx="251.25" cy="251.25" fill="none" r="75.5208" stroke="black" stroke-width="0.3125" /><line stroke="black" stroke-width="0.3125" x1="245.9635" x2="256.5365" y1="251.25" y2="251.25" /><line stroke="black" stroke-width="0.3125" x1="251.25" x2="251.25" y1="245.9635" y2="256.5365" /><circle cx="251.25" cy="13.75" fill="black" r="2.5" /><path d="M 240.32690455395695 16.442301223235024 151.80134208564812 38.261892684127595" fill="none" stroke="black" stroke-width="2.5" /><polyline fill="black" points="146.9466,39.4585 154.1587,32.5312 156.5518,42.2406 146.9466,39.4585" stroke="none" /><circle cx="308.0875" cy="20.6513" fill="black" r="2.5" /><path d="M 301.6967418675695 29.909886852616268 62.182060250982126 376.9068088573458" fill="none" stroke="black" stroke-width="2.5" /><polyline fill="black" points="59.3417,381.0217 60.1464,371.0542 68.3762,376.7348 59.3417,381.0217" stroke="none" /><circle cx="361.6218" cy="40.9542" fill="black" r="2.5" /><path d="M 351.6603730717964 46.18232959285505 25.44302269031079 217.39440275386832" fill="none" stroke="black" stroke-width="2.5" /><polyline fill="black" points="21.0157,219.718 26.3604,211.2661 31.0076,220.1207 21.0157,219.718" stroke="none" /><circle cx="408.7416" cy="73.4787" fill="black" r="2.5" /><path d="M 412.7309363114174 83.99763003957442 483.0290526190593 269.35852883042827" fill="none" stroke="black" stroke-width="2.5" /><polyline fill="black" points="484.8021,274.0336 477.056,267.7092 486.4062,264.1631 484.8021,274.0336" stroke="none" /><circle cx="446.7087" cy="116.3346" fill="black" r="2.5" /><path d="M 438.2879222328185 123.79475255655943 102.17911458473608 421.5611727854276" fill="none" stroke="black" stroke-width="2.5" /><polyline fill="black" points="98.4366,424.8768 101.6032,415.3914 108.2345,422.8765 98.4366,424.8768" stroke="none" /><circle cx="473.3164" cy="167.0313" fill="black" r="2.5" /><path d="M 462.79742490757513 171.02064430662634 39.70257509242494 331.47935569337375" fill="none" stroke="black" stroke-width="2.5" /><polyline fill="black" points="35.0275,333.2524 41.3519,325.5063 44.898,334.8565 35.0275,333.2524" stroke="none" /><circle cx="487.0184" cy="222.6225" fill="black" r="2.5" /><path d="M 481.7902219127954 232.58391872795943 366.84988904588755 451.5844258040387" fill="none" stroke="black" stroke-width="2.5" /><polyline fill="black" points="364.5263,456.0117 364.1236,446.0198 372.9782,450.667 364.5263,456.0117" stroke="none" /><circle cx="487.0184" cy="279.8775" fill="black" r="2.5" /><path d="M 483.0290526190593 269.35852883042827 412.7309363114174 83.99763003957442" fill="none" stroke="black" stroke-width="2.5" /><polyline fill="black" points="410.9579,79.3225 418.704,85.647 409.3538,89.1931 410.9579,79.3225" stroke="none" /><circle cx="473.3164" cy="335.4687" fill="black" r="2.5" /><path d="M 462.79742490757513 339.4579656518307 151.39717936981597 457.5565011134089" fill="none" stroke="black" stroke-width="2.5" /><polyline fill="black" points="146.7221,459.3295 153.0466,451.5835 156.5926,460.9336 146.7221,459.3295" stroke="none" /><circle cx="446.7087" cy="386.1654" fill="black" r="2.5" /><path d="M 438.2879222328185 378.70524744344056 102.17911458473596 80.9388272145725" fill="none" stroke="black" stroke-width="2.5" /><polyline fill="black" points="98.4366,77.6232 108.2345,79.6235 101.6032,87.1086 98.4366,77.6232" stroke="none" /><circle cx="408.7416" cy="429.0213" fill="black" r="2.5" /><path d="M 398.2226986019779 433.010607669865 261.7689327302108 484.7606950207715" fill="none" stroke="black" stroke-width="2.5" /><polyline fill="black" points="257.0939,486.5337 263.4183,478.7877 266.9644,488.1378 257.0939,486.5337" stroke="none" /><circle cx="361.6218" cy="461.5458" fill="black" r="2.5" /><path d="M 366.84988904588755 451.5844258040387 481.7902219127954 232.58391872795943" fill="none" stroke="black" stroke-width="2.5" /><polyline fill="black" points="484.1138,228.1566 484.5165,238.1485 475.6619,233.5013 484.1138,228.1566" stroke="none" /><circle cx="308.0875" cy="481.8487" fill="black" r="2.5" /><path d="M 296.83747026829496 481.84868163868737 205.6625297317051 481.84868163868737" fill="none" stroke="black" stroke-width="2.5" /><polyline fill="black" points="200.6625,481.8487 209.3228,476.8487 209.3228,486.8487 200.6625,481.8487" stroke="none" /><circle cx="251.25" cy="488.75" fill="black" r="2.5" /><path d="M 261.7689327302108 484.7606950207715 398.2226986019779 433.010607669865" fill="none" stroke="black" stroke-width="2.5" /><polyline fill="black" points="402.8978,431.2376 396.5733,438.9836 393.0273,429.6335 402.8978,431.2376" stroke="none" /><circle cx="194.4125" cy="481.8487" fill="black" r="2.5" /><path d="M 205.6625297317051 481.84868163868737 296.83747026829496 481.84868163868737" fill="none" stroke="black" stroke-width="2.5" /><polyline fill="black" points="301.8375,481.8487 293.1772,486.8487 293.1772,476.8487 301.8375,481.8487" stroke="none" /><circle cx="140.8782" cy="461.5458" fill="black" r="2.5" /><path d="M 151.39717936981597 457.5565011134089 462.79742490757513 339.4579656518307" fill="none" stroke="black" stroke-width="2.5" /><polyline fill="black" points="467.4725,337.6849 461.1481,345.431 457.602,336.0808 467.4725,337.6849" stroke="none" /><circle cx="93.7584" cy="429.0213" fill="black" r="2.5" /><path d="M 102.17911458473608 421.5611727854276 438.2879222328185 123.79475255655943" fill="none" stroke="black" stroke-width="2.5" /><polyline fill="black" points="442.0305,120.4791 438.8638,129.9645 432.2326,122.4794 442.0305,120.4791" stroke="none" /><circle cx="55.7913" cy="386.1654" fill="black" r="2.5" /><path d="M 62.182060250982126 376.9068088573458 301.6967418675695 29.909886852616268" fill="none" stroke="black" stroke-width="2.5" /><polyline fill="black" points="304.5371,25.795 303.7324,35.7625 295.5026,30.0819 304.5371,25.795" stroke="none" /><circle cx="29.1836" cy="335.4687" fill="black" r="2.5" /><path d="M 39.70257509242494 331.47935569337375 462.79742490757513 171.02064430662634" fill="none" stroke="black" stroke-width="2.5" /><polyline fill="black" points="467.4725,169.2476 461.1481,176.9937 457.602,167.6435 467.4725,169.2476" stroke="none" /><circle cx="15.4816" cy="279.8775" fill="black" r="2.5" /><path d="M 21.87237080243768 270.6188930693357 188.02180133097954 29.90988685261627" fill="none" stroke="black" stroke-width="2.5" /><polyline fill="black" points="190.8621,25.795 190.0575,35.7625 181.8276,30.0819 190.8621,25.795" stroke="none" /><circle cx="15.4816" cy="222.6225" fill="black" r="2.5" /><path d="M 25.44302269031079 217.39440275386832 351.6603730717964 46.18232959285505" fill="none" stroke="black" stroke-width="2.5" /><polyline fill="black" points="356.0877,43.8587 350.743,52.3106 346.0958,43.4561 356.0877,43.8587" stroke="none" /><circle cx="29.1836" cy="167.0313" fill="black" r="2.5" /><path d="M 34.41177804770637 157.06995903879917 50.56319616476407 126.29600293994933" fill="none" stroke="black" stroke-width="2.5" /><polyline fill="black" points="52.8868,121.8687 53.2895,131.8606 44.4349,127.2134 52.8868,121.8687" stroke="none" /><circle cx="55.7913" cy="116.3346" fill="black" r="2.5" /><path d="M 50.56319616476407 126.29600293994933 34.41177804770637 157.06995903879917" fill="none" stroke="black" stroke-width="2.5" /><polyline fill="black" points="32.0882,161.4972 31.6855,151.5053 40.5401,156.1526 32.0882,161.4972" stroke="none" /><circle cx="93.7584" cy="73.4787" fill="black" r="2.5" /><path d="M 102.17911458473596 80.9388272145725 438.2879222328185 378.70524744344056" fill="none" stroke="black" stroke-width="2.5" /><polyline fill="black" points="442.0305,382.0209 432.2326,380.0206 438.8638,372.5355 442.0305,382.0209" stroke="none" /><circle cx="140.8782" cy="40.9542" fill="black" r="2.5" /><path d="M 151.80134208564812 38.261892684127595 240.32690455395695 16.442301223235024" fill="none" stroke="black" stroke-width="2.5" /><polyline fill="black" points="245.1816,15.2457 237.9696,22.173 235.5764,12.4635 245.1816,15.2457" stroke="none" /><circle cx="194.4125" cy="20.6513" fill="black" r="2.5" /><path d="M 188.02180133097954 29.90988685261627 21.87237080243768 270.6188930693357" fill="none" stroke="black" stroke-width="2.5" /><polyline fill="black" points="19.032,274.7338 19.8367,264.7662 28.0666,270.4469 19.032,274.7338" stroke="none" /></svg>