<?xml version="1.0" encoding="utf-8" ?>
<svg baseProfile="tiny" height="502.5" version="1.2" width="502.5" xmlns="http://www.w3.org/2000/svg" xmlns:ev="http://www.w3.org/2001/xml-events" xmlns:xlink="http://www.w3.org/1999/xlink"><defs /><circle cx="251.25" cy="251.25" fill="none" r="250.0" stroke="black" stroke-width="2.5" /><circle cx="251.25" cy="251.25" fill="none" r="75.5208" stroke="black" stroke-width="0.3125" /><line stroke="black" stroke-width="0.3125" x1="245.9635" x2="256.5365" y1="251.25" y2="251.25" /><line stroke="black" stroke-width="0.3125" x1="251.25" x2="251.25" y1="245.9635" y2="256.5365" /><circle cx="251.25" cy="13.75" fill="black" r="2.5" /><path d="M 260.50856849130366 20.140728400725504 464.0577891464824 160.6406109266723" fill="none" stroke="black" stroke-width="2.5" /><polyline fill="black" points="468.1727,163.4809 458.2051,162.6763 463.8858,154.4464 468.1727,163.4809" stroke="none" /><circle cx="308.0875" cy="20.6513" fill="black" r="2.5" /><path d="M 298.12608997969636 25.87945404680503 39.1450226508126 161.8032036419054" fill="none" stroke="black" stroke-width="2.5" /><polyline fill="black" points="34.7177,164.1268 40.0624,155.6749 44.7096,164.5295 34.7177,164.1268" stroke="none" /><circle cx="361.6218" cy="40.9542" fill="black" r="2.5" /><path d="M 356.3936176749026 50.91557419596126 146.10638232509746 451.5844258040388" fill="none" stroke="black" stroke-width="2.5" /><polyline fill="black" points="143.7828,456.0117 143.3801,446.0198 152.2347,450.667 143.7828,456.0117" stroke="none" /><circle cx="408.7416" cy="73.4787" fill="black" r="2.5" /><path d="M 410.0976689850613 84.64667214296661 445.352630496871 374.99740251504636" fill="none" stroke="black" stroke-width="2.5" /><polyline fill="black" points="445.9553,379.9609 439.9479,371.9665 449.875,370.7612 445.9553,379.9609" stroke="none" /><circle cx="446.7087" cy="116.3346" fill="black" r="2.5" /><path d="M 448.06470580261583 127.5025974849536 471.9603199849136 324.3006858389991" fill="none" stroke="black" stroke-width="2.5" /><polyline fill="black" points="472.563,329.2642 466.5556,321.2698 476.4827,320.0644 472.563,329.2642" stroke="none" /><circle cx="473.3164" cy="167.0313" fill="black" r="2.5" /><path d="M 464.0577891464824 160.6406109266723 260.50856849130366 20.140728400725504" fill="none" stroke="black" stroke-width="2.5" /><polyline fill="black" points="256.3936,17.3004 266.3612,18.1051 260.6806,26.3349 256.3936,17.3004" stroke="none" /><circle cx="487.0184" cy="222.6225" fill="black" r="2.5" /><path d="M 478.59761168136293 230.08266834456975 202.83327564862998 474.38855173347844" fill="none" stroke="black" stroke-width="2.5" /><polyline fill="black" points="199.0907,477.7042 202.2574,468.2188 208.8886,475.7039 199.0907,477.7042" stroke="none" /><circle cx="487.0184" cy="279.8775" fill="black" r="2.5" /><path d="M 477.75978910698416 273.4867331599137 150.13681513090867 47.34492230808812" fill="none" stroke="black" stroke-width="2.5" /><polyline fill="black" points="146.0219,44.5046 155.9895,45.3093 150.3088,53.5391 146.0219,44.5046" stroke="none" /><circle cx="473.3164" cy="335.4687" fill="black" r="2.5" /><path d="M 471.9603199849136 324.3006858389991 448.06470580261583 127.5025974849536" fill="none" stroke="black" stroke-width="2.5" /><polyline fill="black" points="447.462,122.5391 453.4694,130.5335 443.5424,131.7388 447.462,122.5391" stroke="none" /><circle cx="446.7087" cy="386.1654" fill="black" r="2.5" /><path d="M 445.352630496871 374.99740251504636 410.0976689850613 84.64667214296661" fill="none" stroke="black" stroke-width="2.5" /><polyline fill="black" points="409.495,79.6831 415.5024,87.6776 405.5753,88.8829 409.495,79.6831" stroke="none" /><circle cx="408.7416" cy="429.0213" fill="black" r="2.5" /><path d="M 397.5736564985857 427.6652650377641 66.95930668385974 387.5214150015219" fill="none" stroke="black" stroke-width="2.5" /><polyline fill="black" points="61.9958,386.9187 71.1956,382.9991 69.9902,392.9262 61.9958,386.9187" stroke="none" /><circle cx="361.6218" cy="461.5458" fill="black" r="2.5" /><path d="M 357.6324483811666 451.0268733624264 198.40183471093357 31.17025109152355" fill="none" stroke="black" stroke-width="2.5" /><polyline fill="black" points="196.6288,26.4952 204.3749,32.8196 195.0247,36.3657 196.6288,26.4952" stroke="none" /><circle cx="308.0875" cy="481.8487" fill="black" r="2.5" /><path d="M 302.85933458280255 471.88730135008876 98.98650435330345 83.44007759796216" fill="none" stroke="black" stroke-width="2.5" /><polyline fill="black" points="96.6629,79.0128 105.1148,84.3575 96.2602,89.0047 96.6629,79.0128" stroke="none" /><circle cx="251.25" cy="488.75" fill="black" r="2.5" /><path d="M 246.02186431450752 478.7886197114014 61.01946753574885 126.29600293994932" fill="none" stroke="black" stroke-width="2.5" /><polyline fill="black" points="58.6959,121.8687 67.1478,127.2134 58.2932,131.8606 58.6959,121.8687" stroke="none" /><circle cx="194.4125" cy="481.8487" fill="black" r="2.5" /><path d="M 202.83327564862998 474.38855173347844 478.59761168136293 230.08266834456975" fill="none" stroke="black" stroke-width="2.5" /><polyline fill="black" points="482.3402,226.7671 479.1735,236.2524 472.5423,228.7673 482.3402,226.7671" stroke="none" /><circle cx="140.8782" cy="461.5458" fill="black" r="2.5" /><path d="M 146.10638232509746 451.5844258040388 356.3936176749026 50.91557419596126" fill="none" stroke="black" stroke-width="2.5" /><polyline fill="black" points="358.7172,46.4883 359.1199,56.4802 350.2653,51.833 358.7172,46.4883" stroke="none" /><circle cx="93.7584" cy="429.0213" fill="black" r="2.5" /><path d="M 88.5302329823188 419.05992240203796 20.70977808720458 289.83884184923795" fill="none" stroke="black" stroke-width="2.5" /><polyline fill="black" points="18.3862,285.4116 26.8381,290.7562 17.9835,295.4035 18.3862,285.4116" stroke="none" /><circle cx="55.7913" cy="386.1654" fill="black" r="2.5" /><path d="M 66.95930668385974 387.5214150015219 397.5736564985857 427.6652650377641" fill="none" stroke="black" stroke-width="2.5" /><polyline fill="black" points="402.5372,428.2679 393.3374,432.1876 394.5428,422.2605 402.5372,428.2679" stroke="none" /><circle cx="29.1836" cy="335.4687" fill="black" r="2.5" /><path d="M 27.82760470934163 324.30068583899913 16.837680054584563 233.7905132729638" fill="none" stroke="black" stroke-width="2.5" /><polyline fill="black" points="16.235,228.827 22.2424,236.8214 12.3153,238.0268 16.235,228.827" stroke="none" /><circle cx="15.4816" cy="279.8775" fill="black" r="2.5" /><path d="M 20.70977808720458 289.83884184923795 88.5302329823188 419.05992240203796" fill="none" stroke="black" stroke-width="2.5" /><polyline fill="black" points="90.8538,423.4872 82.4019,418.1425 91.2565,413.4953 90.8538,423.4872" stroke="none" /><circle cx="15.4816" cy="222.6225" fill="black" r="2.5" /><path d="M 16.837680054584563 233.7905132729638 27.82760470934163 324.30068583899913" fill="none" stroke="black" stroke-width="2.5" /><polyline fill="black" points="28.4303,329.2642 22.4229,321.2698 32.35,320.0644 28.4303,329.2642" stroke="none" /><circle cx="29.1836" cy="167.0313" fill="black" r="2.5" /><path d="M 39.1450226508126 161.8032036419054 298.12608997969636 25.87945404680503" fill="none" stroke="black" stroke-width="2.5" /><polyline fill="black" points="302.5534,23.5558 297.2087,32.0077 292.5615,23.1532 302.5534,23.5558" stroke="none" /><circle cx="55.7913" cy="116.3346" fill="black" r="2.5" /><path d="M 61.01946753574885 126.29600293994932 246.02186431450752 478.7886197114014" fill="none" stroke="black" stroke-width="2.5" /><polyline fill="black" points="248.3455,483.2159 239.8936,477.8712 248.7481,473.224 248.3455,483.2159" stroke="none" /><circle cx="93.7584" cy="73.4787" fill="black" r="2.5" /><path d="M 98.98650435330345 83.44007759796216 302.85933458280255 471.88730135008876" fill="none" stroke="black" stroke-width="2.5" /><polyline fill="black" points="305.183,476.3146 296.731,470.9699 305.5856,466.3227 305.183,476.3146" stroke="none" /><circle cx="140.8782" cy="40.9542" fill="black" r="2.5" /><path d="M 150.13681513090867 47.34492230808812 477.75978910698416 273.4867331599137" fill="none" stroke="black" stroke-width="2.5" /><polyline fill="black" points="481.8747,276.3271 471.9071,275.5224 477.5878,267.2926 481.8747,276.3271" stroke="none" /><circle cx="194.4125" cy="20.6513" fill="black" r="2.5" /><path d="M 198.40183471093357 31.17025109152355 357.6324483811666 451.0268733624264" fill="none" stroke="black" stroke-width="2.5" /><polyline fill="black" points="359.4055,455.702 351.6594,449.3775 361.0096,445.8315 359.4055,455.702" stroke="none" /></svg>