<?xml version="1.0" encoding="utf-8" ?>
<svg baseProfile="tiny" height="502.5" version="1.2" width="502.5" xmlns="http://www.w3.org/2000/svg" xmlns:ev="http://www.w3.org/2001/xml-events" xmlns:xlink="http://www.w3.org/1999/xlink"><defs /><circle cx="251.25" cy="251.25" fill="none" r="250.0" stroke="black" stroke-width="2.5" /><circle cx="251.25" cy="251.25" fill="none" r="75.5208" stroke="black" stroke-width="0.3125" /><line stroke="black" stroke-width="0.3125" x1="245.9635" x2="256.5365" y1="251.25" y2="251.25" /><line stroke="black" stroke-width="0.3125" x1="251.25" x2="251.25" y1="245.9635" y2="256.5365" /><circle cx="251.25" cy="13.75" fill="black" r="2.5" /><path d="M 261.2113802885986 18.978135685492397 436.7472878611448 111.1064869658581" fill="none" stroke="black" stroke-width="2.5" /><polyline fill="black" points="441.1746,113.4301 431.1827,113.8328 435.8299,104.9782 441.1746,113.4301" stroke="none" /><circle cx="308.0875" cy="20.6513" fill="black" r="2.5" /><path d="M 312.07677524752347 31.17025109152355 442.7193631705149 375.6464446184386" fill="none" stroke="black" stroke-width="2.5" /><polyline fill="black" points="444.4924,380.3215 436.7463,373.9971 446.0965,370.451 444.4924,380.3215" stroke="none" /><circle cx="361.6218" cy="40.9542" fill="black" r="2.5" /><path d="M 360.2657157075226 52.122168740965755 309.4435079211674 470.68070680508424" fill="none" stroke="black" stroke-width="2.5" /><polyline fill="black" points="308.8408,475.6443 304.9212,466.4445 314.8482,467.6498 308.8408,475.6443" stroke="none" /><circle cx="408.7416" cy="73.4787" fill="black" r="2.5" /><path d="M 397.81853588614575 70.78639608612848 205.3356251777481 23.34361958454766" fill="none" stroke="black" stroke-width="2.5" /><polyline fill="black" points="200.4809,22.147 210.0861,19.3649 207.6929,29.0743 200.4809,22.147" stroke="none" /><circle cx="446.7087" cy="116.3346" fill="black" r="2.5" /><path d="M 436.7472878611448 111.1064869658581 261.2113802885986 18.978135685492397" fill="none" stroke="black" stroke-width="2.5" /><polyline fill="black" points="256.7841,16.6545 266.776,16.2519 262.1288,25.1064 256.7841,16.6545" stroke="none" /><circle cx="473.3164" cy="167.0313" fill="black" r="2.5" /><path d="M 469.32705265855753 177.5502720576087 365.61105833962364 451.0268733624264" fill="none" stroke="black" stroke-width="2.5" /><polyline fill="black" points="363.838,455.702 362.2339,445.8315 371.5841,449.3775 363.838,455.702" stroke="none" /><circle cx="487.0184" cy="222.6225" fill="black" r="2.5" /><path d="M 477.0569773096892 217.3944027538684 150.83962692820367 46.18232959285502" fill="none" stroke="black" stroke-width="2.5" /><polyline fill="black" points="146.4123,43.8587 156.4042,43.4561 151.757,52.3106 146.4123,43.8587" stroke="none" /><circle cx="487.0184" cy="279.8775" fill="black" r="2.5" /><path d="M 477.0569773096892 274.64932587514676 103.71974895640966 78.70683299485594" fill="none" stroke="black" stroke-width="2.5" /><polyline fill="black" points="99.2925,76.3832 109.2844,75.9806 104.6371,84.8351 99.2925,76.3832" stroke="none" /><circle cx="473.3164" cy="335.4687" fill="black" r="2.5" /><path d="M 462.79742490757513 331.4793556933737 39.70257509242491 171.02064430662634" fill="none" stroke="black" stroke-width="2.5" /><polyline fill="black" points="35.0275,169.2476 44.898,167.6435 41.3519,176.9937 35.0275,169.2476" stroke="none" /><circle cx="446.7087" cy="386.1654" fill="black" r="2.5" /><path d="M 442.7193631705149 375.6464446184386 312.07677524752347 31.17025109152355" fill="none" stroke="black" stroke-width="2.5" /><polyline fill="black" points="310.3038,26.4952 318.0498,32.8196 308.6996,36.3657 310.3038,26.4952" stroke="none" /><circle cx="408.7416" cy="429.0213" fill="black" r="2.5" /><path d="M 400.32088541526394 421.5611727854276 64.21207776718136 123.79475255655966" fill="none" stroke="black" stroke-width="2.5" /><polyline fill="black" points="60.4695,120.4791 70.2674,122.4794 63.6362,129.9645 60.4695,120.4791" stroke="none" /><circle cx="361.6218" cy="461.5458" fill="black" r="2.5" /><path d="M 365.61105833962364 451.0268733624264 469.32705265855753 177.5502720576087" fill="none" stroke="black" stroke-width="2.5" /><polyline fill="black" points="471.1001,172.8752 472.7042,182.7457 463.354,179.1996 471.1001,172.8752" stroke="none" /><circle cx="308.0875" cy="481.8487" fill="black" r="2.5" /><path d="M 309.4435079211674 470.68070680508424 360.2657157075226 52.122168740965755" fill="none" stroke="black" stroke-width="2.5" /><polyline fill="black" points="360.8684,47.1586 364.7881,56.3584 354.861,55.1531 360.8684,47.1586" stroke="none" /><circle cx="251.25" cy="488.75" fill="black" r="2.5" /><path d="M 241.28861971140128 483.5218643145076 65.75271213885523 391.3935130341419" fill="none" stroke="black" stroke-width="2.5" /><polyline fill="black" points="61.3254,389.0699 71.3173,388.6672 66.6701,397.5218 61.3254,389.0699" stroke="none" /><circle cx="194.4125" cy="481.8487" fill="black" r="2.5" /><path d="M 184.45114944310646 476.62054595319495 103.7197489564098 434.249438376129" fill="none" stroke="black" stroke-width="2.5" /><polyline fill="black" points="99.2925,431.9258 109.2844,431.5232 104.6371,440.3777 99.2925,431.9258" stroke="none" /><circle cx="140.8782" cy="461.5458" fill="black" r="2.5" /><path d="M 135.65011095411268 451.5844258040388 20.709778087204576 232.58391872795934" fill="none" stroke="black" stroke-width="2.5" /><polyline fill="black" points="18.3862,228.1566 26.8381,233.5013 17.9835,238.1485 18.3862,228.1566" stroke="none" /><circle cx="93.7584" cy="429.0213" fill="black" r="2.5" /><path d="M 103.7197489564098 434.249438376129 184.45114944310646 476.62054595319495" fill="none" stroke="black" stroke-width="2.5" /><polyline fill="black" points="188.8784,478.9442 178.8865,479.3468 183.5338,470.4923 188.8784,478.9442" stroke="none" /><circle cx="55.7913" cy="386.1654" fill="black" r="2.5" /><path d="M 65.75271213885523 391.3935130341419 241.28861971140128 483.5218643145076" fill="none" stroke="black" stroke-width="2.5" /><polyline fill="black" points="245.7159,485.8455 235.724,486.2481 240.3712,477.3936 245.7159,485.8455" stroke="none" /><circle cx="29.1836" cy="335.4687" fill="black" r="2.5" /><path d="M 26.49134113897898 324.5455652265592 18.173943624947213 290.8005570066824" fill="none" stroke="black" stroke-width="2.5" /><polyline fill="black" points="16.9774,285.9458 23.9046,293.1579 14.1952,295.551 16.9774,285.9458" stroke="none" /><circle cx="15.4816" cy="279.8775" fill="black" r="2.5" /><path d="M 18.173943624947213 290.8005570066824 26.49134113897898 324.5455652265592" fill="none" stroke="black" stroke-width="2.5" /><polyline fill="black" points="27.6879,329.4003 20.7607,322.1882 30.4701,319.7951 27.6879,329.4003" stroke="none" /><circle cx="15.4816" cy="222.6225" fill="black" r="2.5" /><path d="M 20.709778087204576 232.58391872795934 135.65011095411268 451.5844258040388" fill="none" stroke="black" stroke-width="2.5" /><polyline fill="black" points="137.9737,456.0117 129.5218,450.667 138.3764,446.0198 137.9737,456.0117" stroke="none" /><circle cx="29.1836" cy="167.0313" fill="black" r="2.5" /><path d="M 39.70257509242491 171.02064430662634 462.79742490757513 331.4793556933737" fill="none" stroke="black" stroke-width="2.5" /><polyline fill="black" points="467.4725,333.2524 457.602,334.8565 461.1481,325.5063 467.4725,333.2524" stroke="none" /><circle cx="55.7913" cy="116.3346" fill="black" r="2.5" /><path d="M 64.21207776718136 123.79475255655966 400.32088541526394 421.5611727854276" fill="none" stroke="black" stroke-width="2.5" /><polyline fill="black" points="404.0634,424.8768 394.2655,422.8765 400.8968,415.3914 404.0634,424.8768" stroke="none" /><circle cx="93.7584" cy="73.4787" fill="black" r="2.5" /><path d="M 103.71974895640966 78.70683299485594 477.0569773096892 274.64932587514676" fill="none" stroke="black" stroke-width="2.5" /><polyline fill="black" points="481.4843,276.9729 471.4924,277.3756 476.1396,268.521 481.4843,276.9729" stroke="none" /><circle cx="140.8782" cy="40.9542" fill="black" r="2.5" /><path d="M 150.83962692820367 46.18232959285502 477.0569773096892 217.3944027538684" fill="none" stroke="black" stroke-width="2.5" /><polyline fill="black" points="481.4843,219.718 471.4924,220.1207 476.1396,211.2661 481.4843,219.718" stroke="none" /><circle cx="194.4125" cy="20.6513" fill="black" r="2.5" /><path d="M 205.3356251777481 23.34361958454766 397.81853588614575 70.78639608612848" fill="none" stroke="black" stroke-width="2.5" /><polyline fill="black" points="402.6732,71.983 393.0681,74.7651 395.4612,65.0557 402.6732,71.983" stroke="none" /></svg>