<?xml version="1.0" encoding="utf-8" ?>
<svg baseProfile="tiny" height="502.5" version="1.2" width="502.5" xmlns="http://www.w3.org/2000/svg" xmlns:ev="http://www.w3.org/2001/xml-events" xmlns:xlink="http://www.w3.org/1999/xlink"><defs /><circle cx="251.25" cy="251.25" fill="none" r="250.0" stroke="black" stroke-width="2.5" /><circle cx="251.25" cy="251.25" fill="none" r="75.5208" stroke="black" stroke-width="0.3125" /><line stroke="black" stroke-width="0.3125" x1="245.9635" x2="256.5365" y1="251.25" y2="251.25" /><line stroke="black" stroke-width="0.3125" x1="251.25" x2="251.25" y1="245.9635" y2="256.5365" /><circle cx="251.25" cy="13.75" fill="black" r="2.5" /><path d="M 241.9914315086964 20.140728400725504 38.44221085351762 160.6406109266723" fill="none" stroke="black" stroke-width="2.5" /><polyline fill="black" points="34.3273,163.4809 38.6142,154.4464 44.2949,162.6763 34.3273,163.4809" stroke="none" /><circle cx="308.0875" cy="20.6513" fill="black" r="2.5" /><path d="M 296.83747026829496 20.651318361312633 205.66252973170504 20.651318361312633" fill="none" stroke="black" stroke-width="2.5" /><polyline fill="black" points="200.6625,20.6513 209.3228,15.6513 209.3228,25.6513 200.6625,20.6513" stroke="none" /><circle cx="361.6218" cy="40.9542" fill="black" r="2.5" /><path d="M 351.1028206301841 36.96488892813412 318.60640299850587 24.64062334054116" fill="none" stroke="black" stroke-width="2.5" /><polyline fill="black" points="313.9313,22.8676 323.8018,21.2635 320.2558,30.6136 313.9313,22.8676" stroke="none" /><circle cx="408.7416" cy="73.4787" fill="black" r="2.5" /><path d="M 400.320885415264 80.93882721457244 64.21207776718151 378.70524744344056" fill="none" stroke="black" stroke-width="2.5" /><polyline fill="black" points="60.4695,382.0209 63.6362,372.5355 70.2674,380.0206 60.4695,382.0209" stroke="none" /><circle cx="446.7087" cy="116.3346" fill="black" r="2.5" /><path d="M 450.6979731289719 126.8535553815614 483.0290526190593 212.1036057091499" fill="none" stroke="black" stroke-width="2.5" /><polyline fill="black" points="484.8021,216.7787 477.056,210.4542 486.4062,206.9082 484.8021,216.7787" stroke="none" /><circle cx="473.3164" cy="167.0313" fill="black" r="2.5" /><path d="M 473.31635763778604 178.2813393273978 473.31635763778604 324.2186606726022" fill="none" stroke="black" stroke-width="2.5" /><polyline fill="black" points="473.3164,329.2187 468.3164,320.5584 478.3164,320.5584 473.3164,329.2187" stroke="none" /><circle cx="487.0184" cy="222.6225" fill="black" r="2.5" /><path d="M 475.8503827646847 223.97857609223317 26.649617235315283 278.5214239077669" fill="none" stroke="black" stroke-width="2.5" /><polyline fill="black" points="21.6861,279.1241 29.6805,273.1167 30.8859,283.0438 21.6861,279.1241" stroke="none" /><circle cx="487.0184" cy="279.8775" fill="black" r="2.5" /><path d="M 477.75978910698416 273.4867331599137 150.13681513090867 47.34492230808812" fill="none" stroke="black" stroke-width="2.5" /><polyline fill="black" points="146.0219,44.5046 155.9895,45.3093 150.3088,53.5391 146.0219,44.5046" stroke="none" /><circle cx="473.3164" cy="335.4687" fill="black" r="2.5" /><path d="M 462.3932621917429 332.77635944936713 26.404737847755264 225.31483966259574" fill="none" stroke="black" stroke-width="2.5" /><polyline fill="black" points="21.55,224.1183 31.1552,221.3361 28.7621,231.0455 21.55,224.1183" stroke="none" /><circle cx="446.7087" cy="386.1654" fill="black" r="2.5" /><path d="M 435.78557270370027 388.85767857188455 151.80134208564814 458.85350486940234" fill="none" stroke="black" stroke-width="2.5" /><polyline fill="black" points="146.9466,460.0501 154.1587,453.1228 156.5518,462.8323 146.9466,460.0501" stroke="none" /><circle cx="408.7416" cy="429.0213" fill="black" r="2.5" /><path d="M 397.8185358861457 426.32900146740144 40.1067378082571 338.1609618958373" fill="none" stroke="black" stroke-width="2.5" /><polyline fill="black" points="35.252,336.9644 44.8572,334.1822 42.4641,343.8916 35.252,336.9644" stroke="none" /><circle cx="361.6218" cy="461.5458" fill="black" r="2.5" /><path d="M 362.97779101326756 450.37783125903417 407.38559367931646 84.64667214296661" fill="none" stroke="black" stroke-width="2.5" /><polyline fill="black" points="407.9883,79.6831 411.9079,88.8829 401.9809,87.6776 407.9883,79.6831" stroke="none" /><circle cx="308.0875" cy="481.8487" fill="black" r="2.5" /><path d="M 296.91949543469184 483.2047192915598 262.41797483360307 487.39396234712757" fill="none" stroke="black" stroke-width="2.5" /><polyline fill="black" points="257.4544,487.9966 265.4489,481.9892 266.6542,491.9163 257.4544,487.9966" stroke="none" /><circle cx="251.25" cy="488.75" fill="black" r="2.5" /><path d="M 259.67074591692483 481.28987009479107 478.59761168136293 287.3375914658481" fill="none" stroke="black" stroke-width="2.5" /><polyline fill="black" points="482.3402,284.022 479.1735,293.5073 472.5423,286.0222 482.3402,284.022" stroke="none" /><circle cx="194.4125" cy="481.8487" fill="black" r="2.5" /><path d="M 205.5805045653082 480.49264398581494 350.453778526792 462.9018437455097" fill="none" stroke="black" stroke-width="2.5" /><polyline fill="black" points="355.4173,462.2992 347.4229,468.3066 346.2175,458.3795 355.4173,462.2992" stroke="none" /><circle cx="140.8782" cy="461.5458" fill="black" r="2.5" /><path d="M 139.5222089867327 450.3778312590343 95.11440632068344 84.64667214296666" fill="none" stroke="black" stroke-width="2.5" /><polyline fill="black" points="94.5117,79.6831 100.5191,87.6776 90.5921,88.8829 94.5117,79.6831" stroke="none" /><circle cx="93.7584" cy="429.0213" fill="black" r="2.5" /><path d="M 97.74767364703972 418.50236996042565 247.2606950207715 24.268932730210917" fill="none" stroke="black" stroke-width="2.5" /><polyline fill="black" points="249.0337,19.5939 250.6378,29.4644 241.2877,25.9183 249.0337,19.5939" stroke="none" /><circle cx="55.7913" cy="386.1654" fill="black" r="2.5" /><path d="M 55.79133185025662 374.9153773486495 55.79133185025646 127.58462265135071" fill="none" stroke="black" stroke-width="2.5" /><polyline fill="black" points="55.7913,122.5846 60.7913,131.2449 50.7913,131.2449 55.7913,122.5846" stroke="none" /><circle cx="29.1836" cy="335.4687" fill="black" r="2.5" /><path d="M 39.14502265081263 340.6967963580947 298.12608997969636 476.62054595319495" fill="none" stroke="black" stroke-width="2.5" /><polyline fill="black" points="302.5534,478.9442 292.5615,479.3468 297.2087,470.4923 302.5534,478.9442" stroke="none" /><circle cx="15.4816" cy="279.8775" fill="black" r="2.5" /><path d="M 26.404737847755264 282.5697627838744 435.78557270370027 383.4730761254144" fill="none" stroke="black" stroke-width="2.5" /><polyline fill="black" points="440.6403,384.6697 431.0351,387.4518 433.4283,377.7424 440.6403,384.6697" stroke="none" /><circle cx="15.4816" cy="222.6225" fill="black" r="2.5" /><path d="M 19.470947380940707 233.14147116957162 89.76906368858268 418.50236996042565" fill="none" stroke="black" stroke-width="2.5" /><polyline fill="black" points="91.5421,423.1775 83.796,416.853 93.1462,413.3069 91.5421,423.1775" stroke="none" /><circle cx="29.1836" cy="167.0313" fill="black" r="2.5" /><path d="M 34.411778047706385 176.99271961599644 189.1843940462127 471.88730135008876" fill="none" stroke="black" stroke-width="2.5" /><polyline fill="black" points="191.508,476.3146 183.0561,470.9699 191.9107,466.3227 191.508,476.3146" stroke="none" /><circle cx="55.7913" cy="116.3346" fill="black" r="2.5" /><path d="M 66.95930668385957 117.69066030422309 462.1483828041829 165.67530167452543" fill="none" stroke="black" stroke-width="2.5" /><polyline fill="black" points="467.1119,166.278 457.9121,170.1977 459.1175,160.2706 467.1119,166.278" stroke="none" /><circle cx="93.7584" cy="73.4787" fill="black" r="2.5" /><path d="M 104.92634350141417 74.83473496223593 435.5406933161403 114.97858499847811" fill="none" stroke="black" stroke-width="2.5" /><polyline fill="black" points="440.5042,115.5813 431.3044,119.5009 432.5098,109.5738 440.5042,115.5813" stroke="none" /><circle cx="140.8782" cy="40.9542" fill="black" r="2.5" /><path d="M 152.12824663960504 40.95419390736262 350.371753360395 40.95419390736265" fill="none" stroke="black" stroke-width="2.5" /><polyline fill="black" points="355.3718,40.9542 346.7115,45.9542 346.7115,35.9542 355.3718,40.9542" stroke="none" /><circle cx="194.4125" cy="20.6513" fill="black" r="2.5" /><path d="M 199.64066541719743 30.612698649911245 403.5134956466964 419.0599224020379" fill="none" stroke="black" stroke-width="2.5" /><polyline fill="black" points="405.8371,423.4872 397.3852,418.1425 406.2398,413.4953 405.8371,423.4872" stroke="none" /></svg>