<?xml version="1.0" encoding="utf-8" ?>
<svg baseProfile="tiny" height="502.5" version="1.2" width="502.5" xmlns="http://www.w3.org/2000/svg" xmlns:ev="http://www.w3.org/2001/xml-events" xmlns:xlink="http://www.w3.org/1999/xlink"><defs /><circle cx="251.25" cy="251.25" fill="none" r="250.0" stroke="black" stroke-width="2.5" /><circle cx="251.25" cy="251.25" fill="none" r="75.5208" stroke="black" stroke-width="0.3125" /><line stroke="black" stroke-width="0.3125" x1="245.9635" x2="256.5365" y1="251.25" y2="251.25" /><line stroke="black" stroke-width="0.3125" x1="251.25" x2="251.25" y1="245.9635" y2="256.5365" /><circle cx="251.25" cy="13.75" fill="black" r="2.5" /><path d="M 262.4179748336032 15.106037652872383 296.91949543469184 19.29528070844025" fill="none" stroke="black" stroke-width="2.5" /><polyline fill="black" points="301.883,19.898 292.6832,23.8176 293.8886,13.8905 301.883,19.898" stroke="none" /><circle cx="308.0875" cy="20.6513" fill="black" r="2.5" /><path d="M 318.04885055689357 25.87945404680503 398.7802510435903 68.2505616238711" fill="none" stroke="black" stroke-width="2.5" /><polyline fill="black" points="403.2075,70.5742 393.2156,70.9768 397.8629,62.1223 403.2075,70.5742" stroke="none" /><circle cx="361.6218" cy="40.9542" fill="black" r="2.5" /><path d="M 369.08188326560395 49.37493982428754 465.8562277325771 158.61059341047292" fill="none" stroke="black" stroke-width="2.5" /><polyline fill="black" points="469.1718,162.3531 459.6865,159.1865 467.1716,152.5552 469.1718,162.3531" stroke="none" /><circle cx="408.7416" cy="73.4787" fill="black" r="2.5" /><path d="M 412.7309363114174 83.99763003957442 483.0290526190593 269.35852883042827" fill="none" stroke="black" stroke-width="2.5" /><polyline fill="black" points="484.8021,274.0336 477.056,267.7092 486.4062,264.1631 484.8021,274.0336" stroke="none" /><circle cx="446.7087" cy="116.3346" fill="black" r="2.5" /><path d="M 446.7086681497434 127.58462265135049 446.7086681497434 374.9153773486495" fill="none" stroke="black" stroke-width="2.5" /><polyline fill="black" points="446.7087,379.9154 441.7087,371.2551 451.7087,371.2551 446.7087,379.9154" stroke="none" /><circle cx="473.3164" cy="167.0313" fill="black" r="2.5" /><path d="M 469.32705265855753 177.5502720576087 365.61105833962364 451.0268733624264" fill="none" stroke="black" stroke-width="2.5" /><polyline fill="black" points="363.838,455.702 362.2339,445.8315 371.5841,449.3775 363.838,455.702" stroke="none" /><circle cx="487.0184" cy="222.6225" fill="black" r="2.5" /><path d="M 480.6276291975623 213.36396994805716 368.0124817611205 50.212762398666285" fill="none" stroke="black" stroke-width="2.5" /><polyline fill="black" points="365.1722,46.0978 374.2067,50.3848 365.9768,56.0654 365.1722,46.0978" stroke="none" /><circle cx="487.0184" cy="279.8775" fill="black" r="2.5" /><path d="M 477.0569773096892 285.1055972461316 150.8396269282037 456.317670407145" fill="none" stroke="black" stroke-width="2.5" /><polyline fill="black" points="146.4123,458.6413 151.757,450.1894 156.4042,459.0439 146.4123,458.6413" stroke="none" /><circle cx="473.3164" cy="335.4687" fill="black" r="2.5" /><path d="M 462.1483828041829 336.8246983254746 66.95930668385974 384.80933969577706" fill="none" stroke="black" stroke-width="2.5" /><polyline fill="black" points="61.9958,385.412 69.9902,379.4046 71.1956,389.3317 61.9958,385.412" stroke="none" /><circle cx="446.7087" cy="386.1654" fill="black" r="2.5" /><path d="M 435.78557270370027 383.4730761254144 26.404737847755264 282.5697627838744" fill="none" stroke="black" stroke-width="2.5" /><polyline fill="black" points="21.55,281.3732 31.1552,278.591 28.7621,288.3004 21.55,281.3732" stroke="none" /><circle cx="408.7416" cy="429.0213" fill="black" r="2.5" /><path d="M 401.2815014269799 420.6005567737116 101.21849857302 81.89944322628844" fill="none" stroke="black" stroke-width="2.5" /><polyline fill="black" points="97.9029,78.1569 107.3882,81.3236 99.9031,87.9548 97.9029,78.1569" stroke="none" /><circle cx="361.6218" cy="461.5458" fill="black" r="2.5" /><path d="M 353.20100744347025 454.08567618742836 37.604388279138874 174.49146923260676" fill="none" stroke="black" stroke-width="2.5" /><polyline fill="black" points="33.8618,171.1759 43.6597,173.1761 37.0285,180.6612 33.8618,171.1759" stroke="none" /><circle cx="308.0875" cy="481.8487" fill="black" r="2.5" /><path d="M 305.3951690450599 470.9255861926443 197.10483095494004 31.574413807355718" fill="none" stroke="black" stroke-width="2.5" /><polyline fill="black" points="195.9083,26.7197 202.8355,33.9317 193.1261,36.3249 195.9083,26.7197" stroke="none" /><circle cx="251.25" cy="488.75" fill="black" r="2.5" /><circle cx="251.25" cy="488.75" fill="none" r="5.0" stroke="black" stroke-width="1.25" /><circle cx="194.4125" cy="481.8487" fill="black" r="2.5" /><path d="M 193.05649207883272 470.68070680508424 142.2342842924774 52.122168740965726" fill="none" stroke="black" stroke-width="2.5" /><polyline fill="black" points="141.6316,47.1586 147.639,55.1531 137.7119,56.3584 141.6316,47.1586" stroke="none" /><circle cx="140.8782" cy="461.5458" fill="black" r="2.5" /><path d="M 148.33837654481403 453.1250601757125 439.2485382445345 124.75536856827539" fill="none" stroke="black" stroke-width="2.5" /><polyline fill="black" points="442.5642,121.0128 440.5639,130.8107 433.0788,124.1795 442.5642,121.0128" stroke="none" /><circle cx="93.7584" cy="429.0213" fill="black" r="2.5" /><path d="M 104.68146411385428 426.3290014674015 462.3932621917429 338.16096189583726" fill="none" stroke="black" stroke-width="2.5" /><polyline fill="black" points="467.248,336.9644 460.0359,343.8916 457.6428,334.1822 467.248,336.9644" stroke="none" /><circle cx="55.7913" cy="386.1654" fill="black" r="2.5" /><path d="M 55.79133185025662 374.9153773486495 55.79133185025646 127.58462265135071" fill="none" stroke="black" stroke-width="2.5" /><polyline fill="black" points="55.7913,122.5846 60.7913,131.2449 50.7913,131.2449 55.7913,122.5846" stroke="none" /><circle cx="29.1836" cy="335.4687" fill="black" r="2.5" /><path d="M 40.1067378082571 332.7763594493672 476.09526215224474 225.3148396625958" fill="none" stroke="black" stroke-width="2.5" /><polyline fill="black" points="480.95,224.1183 473.7379,231.0455 471.3448,221.3361 480.95,224.1183" stroke="none" /><circle cx="15.4816" cy="279.8775" fill="black" r="2.5" /><path d="M 22.941772306921123 271.45671564371446 243.78987009479107 22.170745916924886" fill="none" stroke="black" stroke-width="2.5" /><polyline fill="black" points="247.1055,18.4282 245.1052,28.2261 237.6201,21.5949 247.1055,18.4282" stroke="none" /><circle cx="15.4816" cy="222.6225" fill="black" r="2.5" /><path d="M 25.443022690310787 227.8506741248531 398.7802510435902 423.7931670051441" fill="none" stroke="black" stroke-width="2.5" /><polyline fill="black" points="403.2075,426.1168 393.2156,426.5194 397.8629,417.6649 403.2075,426.1168" stroke="none" /><circle cx="29.1836" cy="167.0313" fill="black" r="2.5" /><path d="M 36.64377226742293 175.4520852443227 300.62734036308603 473.4279357217625" fill="none" stroke="black" stroke-width="2.5" /><polyline fill="black" points="303.943,477.1705 294.4576,474.0038 301.9427,467.3726 303.943,477.1705" stroke="none" /><circle cx="55.7913" cy="116.3346" fill="black" r="2.5" /><path d="M 51.802026871027934 126.85355538156163 19.4709473809407 212.1036057091498" fill="none" stroke="black" stroke-width="2.5" /><polyline fill="black" points="17.6979,216.7787 16.0938,206.9082 25.444,210.4542 17.6979,216.7787" stroke="none" /><circle cx="93.7584" cy="73.4787" fill="black" r="2.5" /><path d="M 91.06606744457603 84.40179275540665 31.875943585449036 324.5455652265591" fill="none" stroke="black" stroke-width="2.5" /><polyline fill="black" points="30.6794,329.4003 27.8972,319.7951 37.6066,322.1882 30.6794,329.4003" stroke="none" /><circle cx="140.8782" cy="40.9542" fill="black" r="2.5" /><path d="M 139.52220898673266 52.122168740965726 95.11440632068359 417.85332785703343" fill="none" stroke="black" stroke-width="2.5" /><polyline fill="black" points="94.5117,422.8169 90.5921,413.6171 100.5191,414.8224 94.5117,422.8169" stroke="none" /><circle cx="194.4125" cy="20.6513" fill="black" r="2.5" /><path d="M 194.41252973170504 31.901318361312633 194.4125297317051 470.59868163868737" fill="none" stroke="black" stroke-width="2.5" /><polyline fill="black" points="194.4125,475.5987 189.4125,466.9384 199.4125,466.9384 194.4125,475.5987" stroke="none" /></svg>