<?xml version="1.0" encoding="utf-8" ?>
<svg baseProfile="tiny" height="502.5" version="1.2" width="502.5" xmlns="http://www.w3.org/2000/svg" xmlns:ev="http://www.w3.org/2001/xml-events" xmlns:xlink="http://www.w3.org/1999/xlink"><defs /><circle cx="251.25" cy="251.25" fill="none" r="250.0" stroke="black" stroke-width="2.5" /><circle cx="251.25" cy="251.25" fill="none" r="75.5208" stroke="black" stroke-width="0.3125" /><line stroke="black" stroke-width="0.3125" x1="245.9635" x2="256.5365" y1="251.25" y2="251.25" /><line stroke="black" stroke-width="0.3125" x1="251.25" x2="251.25" y1="245.9635" y2="256.5365" /><circle cx="251.25" cy="13.75" fill="black" r="2.5" /><path d="M 256.4781356854924 23.711380288598612 441.480532464251 376.2039970600509" fill="none" stroke="black" stroke-width="2.5" /><polyline fill="black" points="443.8041,380.6313 435.3522,375.2866 444.2068,370.6394 443.8041,380.6313" stroke="none" /><circle cx="308.0875" cy="20.6513" fill="black" r="2.5" /><path d="M 304.09816528906646 31.17025109152355 144.8675516188336 451.0268733624265" fill="none" stroke="black" stroke-width="2.5" /><polyline fill="black" points="143.0945,455.702 141.4904,445.8315 150.8406,449.3775 143.0945,455.702" stroke="none" /><circle cx="361.6218" cy="40.9542" fill="black" r="2.5" /><path d="M 368.0124817611205 50.212762398666285 480.6276291975623 213.36396994805716" fill="none" stroke="black" stroke-width="2.5" /><polyline fill="black" points="483.468,217.4789 474.4334,213.192 482.6633,207.5113 483.468,217.4789" stroke="none" /><circle cx="408.7416" cy="73.4787" fill="black" r="2.5" /><path d="M 397.81853588614575 76.17099853259852 40.10673780825707 164.3390381041628" fill="none" stroke="black" stroke-width="2.5" /><polyline fill="black" points="35.252,165.5356 42.4641,158.6084 44.8572,168.3178 35.252,165.5356" stroke="none" /><circle cx="446.7087" cy="116.3346" fill="black" r="2.5" /><path d="M 440.3179397490179 125.59319114265412 200.80325813243059 472.5901131473837" fill="none" stroke="black" stroke-width="2.5" /><polyline fill="black" points="197.9629,476.705 198.7676,466.7375 206.9974,472.4181 197.9629,476.705" stroke="none" /><circle cx="473.3164" cy="167.0313" fill="black" r="2.5" /><path d="M 462.1483828041829 168.38737698027018 26.649617235315283 221.26650078648834" fill="none" stroke="black" stroke-width="2.5" /><polyline fill="black" points="21.6861,221.8692 29.6805,215.8618 30.8859,225.7889 21.6861,221.8692" stroke="none" /><circle cx="487.0184" cy="222.6225" fill="black" r="2.5" /><path d="M 480.6276291975623 231.88110693066443 314.47819866902046 472.5901131473837" fill="none" stroke="black" stroke-width="2.5" /><polyline fill="black" points="311.6379,476.705 312.4425,466.7375 320.6724,472.4181 311.6379,476.705" stroke="none" /><circle cx="487.0184" cy="279.8775" fill="black" r="2.5" /><path d="M 485.6623199454154 268.70948672703605 474.67239529065847 178.1993141610009" fill="none" stroke="black" stroke-width="2.5" /><polyline fill="black" points="474.0697,173.2358 480.0771,181.2302 470.15,182.4356 474.0697,173.2358" stroke="none" /><circle cx="473.3164" cy="335.4687" fill="black" r="2.5" /><path d="M 464.89561172086115 328.0085307673932 149.29899255652992 48.41432381257157" fill="none" stroke="black" stroke-width="2.5" /><polyline fill="black" points="145.5564,45.0987 155.3543,47.099 148.7231,54.5841 145.5564,45.0987" stroke="none" /><circle cx="446.7087" cy="386.1654" fill="black" r="2.5" /><path d="M 435.5406933161403 387.5214150015219 104.92634350141431 427.66526503776413" fill="none" stroke="black" stroke-width="2.5" /><polyline fill="black" points="99.9628,428.2679 107.9572,422.2605 109.1626,432.1876 99.9628,428.2679" stroke="none" /><circle cx="408.7416" cy="429.0213" fill="black" r="2.5" /><path d="M 406.04933010895377 418.09820724459337 310.77977149153 31.574413807355718" fill="none" stroke="black" stroke-width="2.5" /><polyline fill="black" points="309.5832,26.7197 316.5104,33.9317 306.801,36.3249 309.5832,26.7197" stroke="none" /><circle cx="361.6218" cy="461.5458" fill="black" r="2.5" /><path d="M 364.3140545836302 450.6227106465942 444.01636692650834 127.25771809739356" fill="none" stroke="black" stroke-width="2.5" /><polyline fill="black" points="445.2129,122.403 447.9951,132.0082 438.2857,129.615 445.2129,122.403" stroke="none" /><circle cx="308.0875" cy="481.8487" fill="black" r="2.5" /><path d="M 296.91949543469184 483.2047192915598 262.41797483360307 487.39396234712757" fill="none" stroke="black" stroke-width="2.5" /><polyline fill="black" points="257.4544,487.9966 265.4489,481.9892 266.6542,491.9163 257.4544,487.9966" stroke="none" /><circle cx="251.25" cy="488.75" fill="black" r="2.5" /><path d="M 259.67074591692483 481.28987009479107 478.59761168136293 287.3375914658481" fill="none" stroke="black" stroke-width="2.5" /><polyline fill="black" points="482.3402,284.022 479.1735,293.5073 472.5423,286.0222 482.3402,284.022" stroke="none" /><circle cx="194.4125" cy="481.8487" fill="black" r="2.5" /><path d="M 194.4125297317051 470.59868163868737 194.41252973170504 31.901318361312633" fill="none" stroke="black" stroke-width="2.5" /><polyline fill="black" points="194.4125,26.9013 199.4125,35.5616 189.4125,35.5616 194.4125,26.9013" stroke="none" /><circle cx="140.8782" cy="461.5458" fill="black" r="2.5" /><path d="M 132.45750072268018 454.0856761874285 64.21207776718151 393.6255072538584" fill="none" stroke="black" stroke-width="2.5" /><polyline fill="black" points="60.4695,390.3099 70.2674,392.3102 63.6362,399.7953 60.4695,390.3099" stroke="none" /><circle cx="93.7584" cy="429.0213" fill="black" r="2.5" /><path d="M 101.21849857302014 420.6005567737117 401.28150142697996 81.89944322628838" fill="none" stroke="black" stroke-width="2.5" /><polyline fill="black" points="404.5971,78.1569 402.5969,87.9548 395.1118,81.3236 404.5971,78.1569" stroke="none" /><circle cx="55.7913" cy="386.1654" fill="black" r="2.5" /><path d="M 66.95930668385974 387.5214150015219 397.5736564985857 427.6652650377641" fill="none" stroke="black" stroke-width="2.5" /><polyline fill="black" points="402.5372,428.2679 393.3374,432.1876 394.5428,422.2605 402.5372,428.2679" stroke="none" /><circle cx="29.1836" cy="335.4687" fill="black" r="2.5" /><path d="M 35.574370762939516 326.2100921812986 244.85927159927454 23.008568491303635" fill="none" stroke="black" stroke-width="2.5" /><polyline fill="black" points="247.6996,18.8936 246.8949,28.8612 238.6651,23.1806 247.6996,18.8936" stroke="none" /><circle cx="15.4816" cy="279.8775" fill="black" r="2.5" /><path d="M 18.173943624947213 290.8005570066824 26.49134113897898 324.5455652265592" fill="none" stroke="black" stroke-width="2.5" /><polyline fill="black" points="27.6879,329.4003 20.7607,322.1882 30.4701,319.7951 27.6879,329.4003" stroke="none" /><circle cx="15.4816" cy="222.6225" fill="black" r="2.5" /><path d="M 20.709778087204576 212.66115815076208 88.53023298231867 83.44007759796216" fill="none" stroke="black" stroke-width="2.5" /><polyline fill="black" points="90.8538,79.0128 91.2565,89.0047 82.4019,84.3575 90.8538,79.0128" stroke="none" /><circle cx="29.1836" cy="167.0313" fill="black" r="2.5" /><path d="M 37.604388279138874 174.49146923260676 353.20100744347025 454.08567618742836" fill="none" stroke="black" stroke-width="2.5" /><polyline fill="black" points="356.9436,457.4013 347.1457,455.401 353.7769,447.9159 356.9436,457.4013" stroke="none" /><circle cx="55.7913" cy="116.3346" fill="black" r="2.5" /><path d="M 65.75271213885507 121.5627583368431 463.35497734918744 330.2405249871098" fill="none" stroke="black" stroke-width="2.5" /><polyline fill="black" points="467.7823,332.5641 457.7904,332.9668 462.4376,324.1122 467.7823,332.5641" stroke="none" /><circle cx="93.7584" cy="73.4787" fill="black" r="2.5" /><path d="M 104.92634350141417 72.12265965649117 350.4537785267919 42.31023156023504" fill="none" stroke="black" stroke-width="2.5" /><polyline fill="black" points="355.4173,41.7075 347.4229,47.715 346.2175,37.7879 355.4173,41.7075" stroke="none" /><circle cx="140.8782" cy="40.9542" fill="black" r="2.5" /><path d="M 135.65011095411265 50.915574195961234 20.709778087204576 269.91608127204074" fill="none" stroke="black" stroke-width="2.5" /><polyline fill="black" points="18.3862,274.3434 17.9835,264.3515 26.8381,268.9987 18.3862,274.3434" stroke="none" /><circle cx="194.4125" cy="20.6513" fill="black" r="2.5" /><path d="M 185.1539612404014 27.04204676203814 65.04990034156009 109.9438942506252" fill="none" stroke="black" stroke-width="2.5" /><polyline fill="black" points="60.935,112.7842 65.2219,103.7497 70.9026,111.9796 60.935,112.7842" stroke="none" /></svg>