<?xml version="1.0" encoding="utf-8" ?>
<svg baseProfile="tiny" height="502.5" version="1.2" width="502.5" xmlns="http://www.w3.org/2000/svg" xmlns:ev="http://www.w3.org/2001/xml-events" xmlns:xlink="http://www.w3.org/1999/xlink"><defs /><circle cx="251.25" cy="251.25" fill="none" r="250.0" stroke="black" stroke-width="2.5" /><circle cx="251.25" cy="251.25" fill="none" r="75.5208" stroke="black" stroke-width="0.3125" /><line stroke="black" stroke-width="0.3125" x1="245.9635" x2="256.5365" y1="251.25" y2="251.25" /><line stroke="black" stroke-width="0.3125" x1="251.25" x2="251.25" y1="245.9635" y2="256.5365" /><circle cx="251.25" cy="13.75" fill="black" r="2.5" /><path d="M 261.2113802885986 18.978135685492397 436.7472878611448 111.1064869658581" fill="none" stroke="black" stroke-width="2.5" /><polyline fill="black" points="441.1746,113.4301 431.1827,113.8328 435.8299,104.9782 441.1746,113.4301" stroke="none" /><circle cx="308.0875" cy="20.6513" fill="black" r="2.5" /><path d="M 310.77977149153 31.574413807355718 406.04933010895377 418.09820724459337" fill="none" stroke="black" stroke-width="2.5" /><polyline fill="black" points="407.2459,422.9529 400.3187,415.7409 410.0281,413.3477 407.2459,422.9529" stroke="none" /><circle cx="361.6218" cy="40.9542" fill="black" r="2.5" /><path d="M 360.2657157075226 52.122168740965755 309.4435079211674 470.68070680508424" fill="none" stroke="black" stroke-width="2.5" /><polyline fill="black" points="308.8408,475.6443 304.9212,466.4445 314.8482,467.6498 308.8408,475.6443" stroke="none" /><circle cx="408.7416" cy="73.4787" fill="black" r="2.5" /><path d="M 415.1323597329144 82.73726580066713 466.92562923706055 157.77277083609417" fill="none" stroke="black" stroke-width="2.5" /><polyline fill="black" points="469.766,161.8877 460.7314,157.6008 468.9613,151.9201 469.766,161.8877" stroke="none" /><circle cx="446.7087" cy="116.3346" fill="black" r="2.5" /><path d="M 444.01636692650834 127.25771809739356 364.3140545836302 450.6227106465942" fill="none" stroke="black" stroke-width="2.5" /><polyline fill="black" points="363.1175,455.4774 360.3353,445.8722 370.0447,448.2654 363.1175,455.4774" stroke="none" /><circle cx="473.3164" cy="167.0313" fill="black" r="2.5" /><path d="M 476.0086588610211 177.95443477344088 484.32605637505276 211.69944299331772" fill="none" stroke="black" stroke-width="2.5" /><polyline fill="black" points="485.5226,216.5542 478.5954,209.3421 488.3048,206.949 485.5226,216.5542" stroke="none" /><circle cx="487.0184" cy="222.6225" fill="black" r="2.5" /><path d="M 481.7902219127954 212.66115815076216 413.9697670176813 83.4400775979621" fill="none" stroke="black" stroke-width="2.5" /><polyline fill="black" points="411.6462,79.0128 420.0981,84.3575 411.2435,89.0047 411.6462,79.0128" stroke="none" /><circle cx="487.0184" cy="279.8775" fill="black" r="2.5" /><path d="M 476.4994248680769 283.8667665398677 104.27730139802212 425.03199771140805" fill="none" stroke="black" stroke-width="2.5" /><polyline fill="black" points="99.6022,426.805 105.9267,419.059 109.4727,428.4091 99.6022,426.805" stroke="none" /><circle cx="473.3164" cy="335.4687" fill="black" r="2.5" /><path d="M 462.79742490757513 331.4793556933737 39.70257509242491 171.02064430662634" fill="none" stroke="black" stroke-width="2.5" /><polyline fill="black" points="35.0275,169.2476 44.898,167.6435 41.3519,176.9937 35.0275,169.2476" stroke="none" /><circle cx="446.7087" cy="386.1654" fill="black" r="2.5" /><path d="M 440.3179397490179 376.9068088573458 200.80325813243053 29.909886852616268" fill="none" stroke="black" stroke-width="2.5" /><polyline fill="black" points="197.9629,25.795 206.9974,30.0819 198.7676,35.7625 197.9629,25.795" stroke="none" /><circle cx="408.7416" cy="429.0213" fill="black" r="2.5" /><path d="M 398.2226986019779 433.010607669865 261.7689327302108 484.7606950207715" fill="none" stroke="black" stroke-width="2.5" /><polyline fill="black" points="257.0939,486.5337 263.4183,478.7877 266.9644,488.1378 257.0939,486.5337" stroke="none" /><circle cx="361.6218" cy="461.5458" fill="black" r="2.5" /><path d="M 351.6603730717965 456.3176704071449 25.443022690310794 285.10559724613177" fill="none" stroke="black" stroke-width="2.5" /><polyline fill="black" points="21.0157,282.782 31.0076,282.3793 26.3604,291.2339 21.0157,282.782" stroke="none" /><circle cx="308.0875" cy="481.8487" fill="black" r="2.5" /><path d="M 296.83747026829496 481.84868163868737 205.6625297317051 481.84868163868737" fill="none" stroke="black" stroke-width="2.5" /><polyline fill="black" points="200.6625,481.8487 209.3228,476.8487 209.3228,486.8487 200.6625,481.8487" stroke="none" /><circle cx="251.25" cy="488.75" fill="black" r="2.5" /><path d="M 246.02186431450752 478.7886197114014 61.01946753574885 126.29600293994932" fill="none" stroke="black" stroke-width="2.5" /><polyline fill="black" points="58.6959,121.8687 67.1478,127.2134 58.2932,131.8606 58.6959,121.8687" stroke="none" /><circle cx="194.4125" cy="481.8487" fill="black" r="2.5" /><path d="M 193.05649207883272 470.68070680508424 142.2342842924774 52.122168740965726" fill="none" stroke="black" stroke-width="2.5" /><polyline fill="black" points="141.6316,47.1586 147.639,55.1531 137.7119,56.3584 141.6316,47.1586" stroke="none" /><circle cx="140.8782" cy="461.5458" fill="black" r="2.5" /><path d="M 150.8396269282037 456.317670407145 477.0569773096892 285.1055972461316" fill="none" stroke="black" stroke-width="2.5" /><polyline fill="black" points="481.4843,282.782 476.1396,291.2339 471.4924,282.3793 481.4843,282.782" stroke="none" /><circle cx="93.7584" cy="429.0213" fill="black" r="2.5" /><path d="M 93.7583686678112 417.77130269063656 93.75836866781106 84.72869730936355" fill="none" stroke="black" stroke-width="2.5" /><polyline fill="black" points="93.7584,79.7287 98.7584,88.389 88.7584,88.389 93.7584,79.7287" stroke="none" /><circle cx="55.7913" cy="386.1654" fill="black" r="2.5" /><path d="M 53.0990306270216 375.24228190260635 18.173943624947206 233.5456338854038" fill="none" stroke="black" stroke-width="2.5" /><polyline fill="black" points="16.9774,228.6909 23.9046,235.9029 14.1952,238.2961 16.9774,228.6909" stroke="none" /><circle cx="29.1836" cy="335.4687" fill="black" r="2.5" /><circle cx="29.1836" cy="335.4687" fill="none" r="5.0" stroke="black" stroke-width="1.25" /><circle cx="15.4816" cy="279.8775" fill="black" r="2.5" /><path d="M 21.872370802437686 289.136030051943 134.48751823887955 452.28723760133374" fill="none" stroke="black" stroke-width="2.5" /><polyline fill="black" points="137.3278,456.4022 128.2933,452.1152 136.5232,446.4346 137.3278,456.4022" stroke="none" /><circle cx="15.4816" cy="222.6225" fill="black" r="2.5" /><path d="M 23.902388318637065 215.16240853415175 242.82925408307514 21.210129905208944" fill="none" stroke="black" stroke-width="2.5" /><polyline fill="black" points="246.5718,17.8945 243.4051,27.3799 236.7739,19.8948 246.5718,17.8945" stroke="none" /><circle cx="29.1836" cy="167.0313" fill="black" r="2.5" /><path d="M 39.70257509242491 171.02064430662634 462.79742490757513 331.4793556933737" fill="none" stroke="black" stroke-width="2.5" /><polyline fill="black" points="467.4725,333.2524 457.602,334.8565 461.1481,325.5063 467.4725,333.2524" stroke="none" /><circle cx="55.7913" cy="116.3346" fill="black" r="2.5" /><path d="M 66.31026458046738 112.34531767212219 297.56853753808406 24.640623340541165" fill="none" stroke="black" stroke-width="2.5" /><polyline fill="black" points="302.2436,22.8676 295.9192,30.6136 292.3731,21.2635 302.2436,22.8676" stroke="none" /><circle cx="93.7584" cy="73.4787" fill="black" r="2.5" /><path d="M 92.40233101493868 84.64667214296666 57.147369503129006 374.99740251504636" fill="none" stroke="black" stroke-width="2.5" /><polyline fill="black" points="56.5447,379.9609 52.625,370.7612 62.5521,371.9665 56.5447,379.9609" stroke="none" /><circle cx="140.8782" cy="40.9542" fill="black" r="2.5" /><path d="M 152.12824663960504 40.95419390736262 350.371753360395 40.95419390736265" fill="none" stroke="black" stroke-width="2.5" /><polyline fill="black" points="355.3718,40.9542 346.7115,45.9542 346.7115,35.9542 355.3718,40.9542" stroke="none" /><circle cx="194.4125" cy="20.6513" fill="black" r="2.5" /><path d="M 200.80325813243053 29.909886852616268 440.3179397490179 376.9068088573458" fill="none" stroke="black" stroke-width="2.5" /><polyline fill="black" points="443.1583,381.0217 434.1238,376.7348 442.3536,371.0542 443.1583,381.0217" stroke="none" /></svg>