<?xml version="1.0" encoding="utf-8" ?>
<svg baseProfile="tiny" height="502.5" version="1.2" width="502.5" xmlns="http://www.w3.org/2000/svg" xmlns:ev="http://www.w3.org/2001/xml-events" xmlns:xlink="http://www.w3.org/1999/xlink"><defs /><circle cx="251.25" cy="251.25" fill="none" r="250.0" stroke="black" stroke-width="2.5" /><circle cx="251.25" cy="251.25" fill="none" r="75.5208" stroke="black" stroke-width="0.3125" /><line stroke="black" stroke-width="0.3125" x1="245.9635" x2="256.5365" y1="251.25" y2="251.25" /><line stroke="black" stroke-width="0.3125" x1="251.25" x2="251.25" y1="245.9635" y2="256.5365" /><circle cx="251.25" cy="13.75" fill="black" r="2.5" /><path d="M 261.2113802885986 18.978135685492397 436.7472878611448 111.1064869658581" fill="none" stroke="black" stroke-width="2.5" /><polyline fill="black" points="441.1746,113.4301 431.1827,113.8328 435.8299,104.9782 441.1746,113.4301" stroke="none" /><circle cx="308.0875" cy="20.6513" fill="black" r="2.5" /><path d="M 300.62734036308603 29.07206427823752 36.64377226742296 327.04791475567737" fill="none" stroke="black" stroke-width="2.5" /><polyline fill="black" points="33.3282,330.7905 35.3284,320.9926 42.8135,327.6238 33.3282,330.7905" stroke="none" /><circle cx="361.6218" cy="40.9542" fill="black" r="2.5" /><path d="M 357.6324483811665 51.47312663757357 198.40183471093363 471.32974890847646" fill="none" stroke="black" stroke-width="2.5" /><polyline fill="black" points="196.6288,476.0048 195.0247,466.1343 204.3749,469.6804 196.6288,476.0048" stroke="none" /><circle cx="408.7416" cy="73.4787" fill="black" r="2.5" /><path d="M 397.81853588614575 76.17099853259852 40.10673780825707 164.3390381041628" fill="none" stroke="black" stroke-width="2.5" /><polyline fill="black" points="35.252,165.5356 42.4641,158.6084 44.8572,168.3178 35.252,165.5356" stroke="none" /><circle cx="446.7087" cy="116.3346" fill="black" r="2.5" /><path d="M 439.2485382445345 124.75536856827539 148.33837654481403 453.1250601757125" fill="none" stroke="black" stroke-width="2.5" /><polyline fill="black" points="145.0228,456.8676 147.023,447.0697 154.5081,453.7009 145.0228,456.8676" stroke="none" /><circle cx="473.3164" cy="167.0313" fill="black" r="2.5" /><path d="M 463.35497734918744 161.8032036419054 204.37391002030367 25.87945404680503" fill="none" stroke="black" stroke-width="2.5" /><polyline fill="black" points="199.9466,23.5558 209.9385,23.1532 205.2913,32.0077 199.9466,23.5558" stroke="none" /><circle cx="487.0184" cy="222.6225" fill="black" r="2.5" /><path d="M 484.32605637505276 233.54563388540387 449.40096937297847 375.2422819026064" fill="none" stroke="black" stroke-width="2.5" /><polyline fill="black" points="448.2044,380.097 445.4222,370.4918 455.1316,372.885 448.2044,380.097" stroke="none" /><circle cx="487.0184" cy="279.8775" fill="black" r="2.5" /><path d="M 479.5582276930789 271.4567156437143 258.710129905209 22.170745916924886" fill="none" stroke="black" stroke-width="2.5" /><polyline fill="black" points="255.3945,18.4282 264.8799,21.5949 257.3948,28.2261 255.3945,18.4282" stroke="none" /><circle cx="473.3164" cy="335.4687" fill="black" r="2.5" /><path d="M 464.89561172086115 328.0085307673932 149.29899255652992 48.41432381257157" fill="none" stroke="black" stroke-width="2.5" /><polyline fill="black" points="145.5564,45.0987 155.3543,47.099 148.7231,54.5841 145.5564,45.0987" stroke="none" /><circle cx="446.7087" cy="386.1654" fill="black" r="2.5" /><path d="M 435.5406933161403 387.5214150015219 104.92634350141431 427.66526503776413" fill="none" stroke="black" stroke-width="2.5" /><polyline fill="black" points="99.9628,428.2679 107.9572,422.2605 109.1626,432.1876 99.9628,428.2679" stroke="none" /><circle cx="408.7416" cy="429.0213" fill="black" r="2.5" /><path d="M 398.7802510435902 423.7931670051441 25.443022690310787 227.8506741248531" fill="none" stroke="black" stroke-width="2.5" /><polyline fill="black" points="21.0157,225.5271 31.0076,225.1244 26.3604,233.979 21.0157,225.5271" stroke="none" /><circle cx="361.6218" cy="461.5458" fill="black" r="2.5" /><path d="M 369.08188326560406 453.1250601757124 465.8562277325771 343.8894065895271" fill="none" stroke="black" stroke-width="2.5" /><polyline fill="black" points="469.1718,340.1469 467.1716,349.9448 459.6865,343.3135 469.1718,340.1469" stroke="none" /><circle cx="308.0875" cy="481.8487" fill="black" r="2.5" /><path d="M 297.56853753808406 477.85937665945886 66.31026458046755 390.154682327878" fill="none" stroke="black" stroke-width="2.5" /><polyline fill="black" points="61.6352,388.3817 71.5057,386.7775 67.9596,396.1277 61.6352,388.3817" stroke="none" /><circle cx="251.25" cy="488.75" fill="black" r="2.5" /><path d="M 259.67074591692483 481.28987009479107 478.59761168136293 287.3375914658481" fill="none" stroke="black" stroke-width="2.5" /><polyline fill="black" points="482.3402,284.022 479.1735,293.5073 472.5423,286.0222 482.3402,284.022" stroke="none" /><circle cx="194.4125" cy="481.8487" fill="black" r="2.5" /><path d="M 191.72022850847006 470.9255861926443 96.45066989104609 84.40179275540663" fill="none" stroke="black" stroke-width="2.5" /><polyline fill="black" points="95.2541,79.5471 102.1813,86.7591 92.4719,89.1523 95.2541,79.5471" stroke="none" /><circle cx="140.8782" cy="461.5458" fill="black" r="2.5" /><path d="M 152.12824663960507 461.5458060926374 350.37175336039513 461.5458060926373" fill="none" stroke="black" stroke-width="2.5" /><polyline fill="black" points="355.3718,461.5458 346.7115,466.5458 346.7115,456.5458 355.3718,461.5458" stroke="none" /><circle cx="93.7584" cy="429.0213" fill="black" r="2.5" /><path d="M 104.27730139802212 433.01060766986507 240.731067269789 484.7606950207715" fill="none" stroke="black" stroke-width="2.5" /><polyline fill="black" points="245.4061,486.5337 235.5356,488.1378 239.0817,478.7877 245.4061,486.5337" stroke="none" /><circle cx="55.7913" cy="386.1654" fill="black" r="2.5" /><path d="M 65.75271213885524 380.93724166315707 463.35497734918744 172.2594750128902" fill="none" stroke="black" stroke-width="2.5" /><polyline fill="black" points="467.7823,169.9359 462.4376,178.3878 457.7904,169.5332 467.7823,169.9359" stroke="none" /><circle cx="29.1836" cy="335.4687" fill="black" r="2.5" /><path d="M 26.49134113897898 324.5455652265592 18.173943624947213 290.8005570066824" fill="none" stroke="black" stroke-width="2.5" /><polyline fill="black" points="16.9774,285.9458 23.9046,293.1579 14.1952,295.551 16.9774,285.9458" stroke="none" /><circle cx="15.4816" cy="279.8775" fill="black" r="2.5" /><path d="M 26.649617235315283 278.5214239077669 475.8503827646847 223.97857609223317" fill="none" stroke="black" stroke-width="2.5" /><polyline fill="black" points="480.8139,223.3759 472.8195,229.3833 471.6141,219.4562 480.8139,223.3759" stroke="none" /><circle cx="15.4816" cy="222.6225" fill="black" r="2.5" /><path d="M 25.443022690310787 227.8506741248531 398.7802510435902 423.7931670051441" fill="none" stroke="black" stroke-width="2.5" /><polyline fill="black" points="403.2075,426.1168 393.2156,426.5194 397.8629,417.6649 403.2075,426.1168" stroke="none" /><circle cx="29.1836" cy="167.0313" fill="black" r="2.5" /><path d="M 40.10673780825707 164.3390381041628 397.81853588614575 76.17099853259852" fill="none" stroke="black" stroke-width="2.5" /><polyline fill="black" points="402.6732,74.9744 395.4612,81.9017 393.0681,72.1922 402.6732,74.9744" stroke="none" /><circle cx="55.7913" cy="116.3346" fill="black" r="2.5" /><path d="M 66.71442729629953 113.64232142811568 350.69865791435194 43.64649513059768" fill="none" stroke="black" stroke-width="2.5" /><polyline fill="black" points="355.5534,42.4499 348.3413,49.3772 345.9482,39.6677 355.5534,42.4499" stroke="none" /><circle cx="93.7584" cy="73.4787" fill="black" r="2.5" /><path d="M 98.98650435330345 83.44007759796216 302.85933458280255 471.88730135008876" fill="none" stroke="black" stroke-width="2.5" /><polyline fill="black" points="305.183,476.3146 296.731,470.9699 305.5856,466.3227 305.183,476.3146" stroke="none" /><circle cx="140.8782" cy="40.9542" fill="black" r="2.5" /><path d="M 132.45750072268015 48.41432381257157 64.21207776718134 108.87449274614177" fill="none" stroke="black" stroke-width="2.5" /><polyline fill="black" points="60.4695,112.1901 63.6362,102.7047 70.2674,110.1898 60.4695,112.1901" stroke="none" /><circle cx="194.4125" cy="20.6513" fill="black" r="2.5" /><path d="M 205.66252973170504 20.651318361312633 296.83747026829496 20.651318361312633" fill="none" stroke="black" stroke-width="2.5" /><polyline fill="black" points="301.8375,20.6513 293.1772,25.6513 293.1772,15.6513 301.8375,20.6513" stroke="none" /></svg>