<?xml version="1.0" encoding="utf-8" ?>
<svg baseProfile="tiny" height="502.5" version="1.2" width="502.5" xmlns="http://www.w3.org/2000/svg" xmlns:ev="http://www.w3.org/2001/xml-events" xmlns:xlink="http://www.w3.org/1999/xlink"><defs /><circle cx="251.25" cy="251.25" fill="none" r="250.0" stroke="black" stroke-width="2.5" /><circle cx="251.25" cy="251.25" fill="none" r="75.5208" stroke="black" stroke-width="0.3125" /><line stroke="black" stroke-width="0.3125" x1="245.9635" x2="256.5365" y1="251.25" y2="251.25" /><line stroke="black" stroke-width="0.3125" x1="251.25" x2="251.25" y1="245.9635" y2="256.5365" /><circle cx="251.25" cy="13.75" fill="black" r="2.5" /><circle cx="251.25" cy="13.75" fill="none" r="5.0" stroke="black" stroke-width="1.25" /><circle cx="308.0875" cy="20.6513" fill="black" r="2.5" /><path d="M 312.07677524752347 31.17025109152355 442.7193631705149 375.6464446184386" fill="none" stroke="black" stroke-width="2.5" /><polyline fill="black" points="444.4924,380.3215 436.7463,373.9971 446.0965,370.451 444.4924,380.3215" stroke="none" /><circle cx="361.6218" cy="40.9542" fill="black" r="2.5" /><path d="M 370.8803218516987 47.34492230808815 399.4830628408852 67.08796890863799" fill="none" stroke="black" stroke-width="2.5" /><polyline fill="black" points="403.598,69.9283 393.6304,69.1236 399.3111,60.8938 403.598,69.9283" stroke="none" /><circle cx="408.7416" cy="73.4787" fill="black" r="2.5" /><path d="M 408.7416313321889 84.7286973093635 408.74163133218883 417.7713026906365" fill="none" stroke="black" stroke-width="2.5" /><polyline fill="black" points="408.7416,422.7713 403.7416,414.111 413.7416,414.111 408.7416,422.7713" stroke="none" /><circle cx="446.7087" cy="116.3346" fill="black" r="2.5" /><path d="M 436.7472878611448 121.56275833684288 39.14502265081263 330.24052498710984" fill="none" stroke="black" stroke-width="2.5" /><polyline fill="black" points="34.7177,332.5641 40.0624,324.1122 44.7096,332.9668 34.7177,332.5641" stroke="none" /><circle cx="473.3164" cy="167.0313" fill="black" r="2.5" /><path d="M 473.31635763778604 178.2813393273978 473.31635763778604 324.2186606726022" fill="none" stroke="black" stroke-width="2.5" /><polyline fill="black" points="473.3164,329.2187 468.3164,320.5584 478.3164,320.5584 473.3164,329.2187" stroke="none" /><circle cx="487.0184" cy="222.6225" fill="black" r="2.5" /><path d="M 476.4994248680769 226.61184341858933 66.31026458046755 382.176072369421" fill="none" stroke="black" stroke-width="2.5" /><polyline fill="black" points="61.6352,383.9491 67.9596,376.203 71.5057,385.5532 61.6352,383.9491" stroke="none" /><circle cx="487.0184" cy="279.8775" fill="black" r="2.5" /><path d="M 475.8503827646847 278.52142390776675 26.649617235315283 223.97857609223308" fill="none" stroke="black" stroke-width="2.5" /><polyline fill="black" points="21.6861,223.3759 30.8859,219.4562 29.6805,229.3833 21.6861,223.3759" stroke="none" /><circle cx="473.3164" cy="335.4687" fill="black" r="2.5" /><path d="M 464.0577891464824 329.0779322718767 103.01693715911469 79.86942571008906" fill="none" stroke="black" stroke-width="2.5" /><polyline fill="black" points="98.902,77.0291 108.8696,77.8338 103.1889,86.0636 98.902,77.0291" stroke="none" /><circle cx="446.7087" cy="386.1654" fill="black" r="2.5" /><path d="M 442.7193631705149 375.6464446184386 312.07677524752347 31.17025109152355" fill="none" stroke="black" stroke-width="2.5" /><polyline fill="black" points="310.3038,26.4952 318.0498,32.8196 308.6996,36.3657 310.3038,26.4952" stroke="none" /><circle cx="408.7416" cy="429.0213" fill="black" r="2.5" /><path d="M 399.48306284088517 435.412031091362 370.8803218516988 455.1550776919118" fill="none" stroke="black" stroke-width="2.5" /><polyline fill="black" points="366.7654,457.9954 371.0523,448.9609 376.733,457.1907 366.7654,457.9954" stroke="none" /><circle cx="361.6218" cy="461.5458" fill="black" r="2.5" /><path d="M 368.0124817611206 452.28723760133363 480.6276291975623 289.13603005194284" fill="none" stroke="black" stroke-width="2.5" /><polyline fill="black" points="483.468,285.0211 482.6633,294.9887 474.4334,289.308 483.468,285.0211" stroke="none" /><circle cx="308.0875" cy="481.8487" fill="black" r="2.5" /><path d="M 301.6967418675695 472.5901131473837 62.18206025098196 125.59319114265435" fill="none" stroke="black" stroke-width="2.5" /><polyline fill="black" points="59.3417,121.4783 68.3762,125.7652 60.1464,131.4458 59.3417,121.4783" stroke="none" /><circle cx="251.25" cy="488.75" fill="black" r="2.5" /><path d="M 242.82925408307503 481.28987009479107 23.902388318637065 287.3375914658483" fill="none" stroke="black" stroke-width="2.5" /><polyline fill="black" points="20.1598,284.022 29.9577,286.0222 23.3265,293.5073 20.1598,284.022" stroke="none" /><circle cx="194.4125" cy="481.8487" fill="black" r="2.5" /><path d="M 205.6625297317051 481.84868163868737 296.83747026829496 481.84868163868737" fill="none" stroke="black" stroke-width="2.5" /><polyline fill="black" points="301.8375,481.8487 293.1772,486.8487 293.1772,476.8487 301.8375,481.8487" stroke="none" /><circle cx="140.8782" cy="461.5458" fill="black" r="2.5" /><path d="M 146.10638232509746 451.5844258040388 356.3936176749026 50.91557419596126" fill="none" stroke="black" stroke-width="2.5" /><polyline fill="black" points="358.7172,46.4883 359.1199,56.4802 350.2653,51.833 358.7172,46.4883" stroke="none" /><circle cx="93.7584" cy="429.0213" fill="black" r="2.5" /><circle cx="93.7584" cy="429.0213" fill="none" r="5.0" stroke="black" stroke-width="1.25" /><circle cx="55.7913" cy="386.1654" fill="black" r="2.5" /><path d="M 66.31026458046755 382.176072369421 476.4994248680769 226.61184341858933" fill="none" stroke="black" stroke-width="2.5" /><polyline fill="black" points="481.1745,224.8388 474.8501,232.5849 471.304,223.2347 481.1745,224.8388" stroke="none" /><circle cx="29.1836" cy="335.4687" fill="black" r="2.5" /><path d="M 34.41177804770641 325.50728038400365 189.18439404621265 30.612698649911245" fill="none" stroke="black" stroke-width="2.5" /><polyline fill="black" points="191.508,26.1854 191.9107,36.1773 183.0561,31.5301 191.508,26.1854" stroke="none" /><circle cx="15.4816" cy="279.8775" fill="black" r="2.5" /><path d="M 23.902388318637065 287.3375914658483 242.82925408307503 481.28987009479107" fill="none" stroke="black" stroke-width="2.5" /><polyline fill="black" points="246.5718,484.6055 236.7739,482.6052 243.4051,475.1201 246.5718,484.6055" stroke="none" /><circle cx="15.4816" cy="222.6225" fill="black" r="2.5" /><path d="M 20.709778087204576 232.58391872795934 135.65011095411268 451.5844258040388" fill="none" stroke="black" stroke-width="2.5" /><polyline fill="black" points="137.9737,456.0117 129.5218,450.667 138.3764,446.0198 137.9737,456.0117" stroke="none" /><circle cx="29.1836" cy="167.0313" fill="black" r="2.5" /><path d="M 36.64377226742293 158.61059341047292 133.41811673439608 49.37493982428751" fill="none" stroke="black" stroke-width="2.5" /><polyline fill="black" points="136.7337,45.6324 134.7335,55.4303 127.2484,48.7991 136.7337,45.6324" stroke="none" /><circle cx="55.7913" cy="116.3346" fill="black" r="2.5" /><path d="M 66.95930668385957 117.69066030422309 462.1483828041829 165.67530167452543" fill="none" stroke="black" stroke-width="2.5" /><polyline fill="black" points="467.1119,166.278 457.9121,170.1977 459.1175,160.2706 467.1119,166.278" stroke="none" /><circle cx="93.7584" cy="73.4787" fill="black" r="2.5" /><path d="M 87.36764026708555 82.73726580066719 35.57437076293949 157.77277083609417" fill="none" stroke="black" stroke-width="2.5" /><polyline fill="black" points="32.734,161.8877 33.5387,151.9201 41.7686,157.6008 32.734,161.8877" stroke="none" /><circle cx="140.8782" cy="40.9542" fill="black" r="2.5" /><path d="M 142.2342842924774 52.122168740965726 193.05649207883272 470.68070680508424" fill="none" stroke="black" stroke-width="2.5" /><polyline fill="black" points="193.6592,475.6443 187.6518,467.6498 197.5788,466.4445 193.6592,475.6443" stroke="none" /><circle cx="194.4125" cy="20.6513" fill="black" r="2.5" /><path d="M 204.93146246191594 24.64062334054116 436.1897354195325 112.34531767212196" fill="none" stroke="black" stroke-width="2.5" /><polyline fill="black" points="440.8648,114.1183 430.9943,115.7225 434.5404,106.3723 440.8648,114.1183" stroke="none" /></svg>