<?xml version="1.0" encoding="utf-8" ?>
<svg baseProfile="tiny" height="502.5" version="1.2" width="502.5" xmlns="http://www.w3.org/2000/svg" xmlns:ev="http://www.w3.org/2001/xml-events" xmlns:xlink="http://www.w3.org/1999/xlink"><defs /><circle cx="251.25" cy="251.25" fill="none" r="250.0" stroke="black" stroke-width="2.5" /><circle cx="251.25" cy="251.25" fill="none" r="75.5208" stroke="black" stroke-width="0.3125" /><line stroke="black" stroke-width="0.3125" x1="245.9635" x2="256.5365" y1="251.25" y2="251.25" /><line stroke="black" stroke-width="0.3125" x1="251.25" x2="251.25" y1="245.9635" y2="256.5365" /><circle cx="251.25" cy="13.75" fill="black" r="2.5" /><path d="M 251.25000000000003 25.0 251.24999999999991 477.5" fill="none" stroke="black" stroke-width="2.5" /><polyline fill="black" points="251.25,482.5 246.25,473.8397 256.25,473.8397 251.25,482.5" stroke="none" /><circle cx="308.0875" cy="20.6513" fill="black" r="2.5" /><path d="M 296.83747026829496 20.651318361312633 205.66252973170504 20.651318361312633" fill="none" stroke="black" stroke-width="2.5" /><polyline fill="black" points="200.6625,20.6513 209.3228,15.6513 209.3228,25.6513 200.6625,20.6513" stroke="none" /><circle cx="361.6218" cy="40.9542" fill="black" r="2.5" /><path d="M 364.3140545836301 51.877289353405736 444.01636692650834 375.24228190260635" fill="none" stroke="black" stroke-width="2.5" /><polyline fill="black" points="445.2129,380.097 438.2857,372.885 447.9951,370.4918 445.2129,380.097" stroke="none" /><circle cx="408.7416" cy="73.4787" fill="black" r="2.5" /><path d="M 412.7309363114174 83.99763003957442 483.0290526190593 269.35852883042827" fill="none" stroke="black" stroke-width="2.5" /><polyline fill="black" points="484.8021,274.0336 477.056,267.7092 486.4062,264.1631 484.8021,274.0336" stroke="none" /><circle cx="446.7087" cy="116.3346" fill="black" r="2.5" /><path d="M 450.6979731289719 126.8535553815614 483.0290526190593 212.1036057091499" fill="none" stroke="black" stroke-width="2.5" /><polyline fill="black" points="484.8021,216.7787 477.056,210.4542 486.4062,206.9082 484.8021,216.7787" stroke="none" /><circle cx="473.3164" cy="167.0313" fill="black" r="2.5" /><path d="M 463.35497734918744 172.2594750128902 65.75271213885524 380.93724166315707" fill="none" stroke="black" stroke-width="2.5" /><polyline fill="black" points="61.3254,383.2609 66.6701,374.809 71.3173,383.6635 61.3254,383.2609" stroke="none" /><circle cx="487.0184" cy="222.6225" fill="black" r="2.5" /><path d="M 480.6276291975623 213.36396994805716 368.0124817611205 50.212762398666285" fill="none" stroke="black" stroke-width="2.5" /><polyline fill="black" points="365.1722,46.0978 374.2067,50.3848 365.9768,56.0654 365.1722,46.0978" stroke="none" /><circle cx="487.0184" cy="279.8775" fill="black" r="2.5" /><path d="M 477.0569773096892 274.64932587514676 103.71974895640966 78.70683299485594" fill="none" stroke="black" stroke-width="2.5" /><polyline fill="black" points="99.2925,76.3832 109.2844,75.9806 104.6371,84.8351 99.2925,76.3832" stroke="none" /><circle cx="473.3164" cy="335.4687" fill="black" r="2.5" /><path d="M 464.89561172086115 342.9287905778111 316.50821618521985 474.38855173347844" fill="none" stroke="black" stroke-width="2.5" /><polyline fill="black" points="312.7657,477.7042 315.9323,468.2188 322.5636,475.7039 312.7657,477.7042" stroke="none" /><circle cx="446.7087" cy="386.1654" fill="black" r="2.5" /><path d="M 439.2485382445345 377.7446314317246 148.338376544814 49.37493982428751" fill="none" stroke="black" stroke-width="2.5" /><polyline fill="black" points="145.0228,45.6324 154.5081,48.7991 147.023,55.4303 145.0228,45.6324" stroke="none" /><circle cx="408.7416" cy="429.0213" fill="black" r="2.5" /><path d="M 397.8185358861457 426.32900146740144 40.1067378082571 338.1609618958373" fill="none" stroke="black" stroke-width="2.5" /><polyline fill="black" points="35.252,336.9644 44.8572,334.1822 42.4641,343.8916 35.252,336.9644" stroke="none" /><circle cx="361.6218" cy="461.5458" fill="black" r="2.5" /><path d="M 354.16162345518615 453.1250601757124 63.25146175546541 124.75536856827559" fill="none" stroke="black" stroke-width="2.5" /><polyline fill="black" points="59.9358,121.0128 69.4212,124.1795 61.9361,130.8107 59.9358,121.0128" stroke="none" /><circle cx="308.0875" cy="481.8487" fill="black" r="2.5" /><path d="M 308.08747026829496 470.59868163868737 308.08747026829496 31.901318361312633" fill="none" stroke="black" stroke-width="2.5" /><polyline fill="black" points="308.0875,26.9013 313.0875,35.5616 303.0875,35.5616 308.0875,26.9013" stroke="none" /><circle cx="251.25" cy="488.75" fill="black" r="2.5" /><path d="M 240.08202516639682 487.39396234712757 205.5805045653082 483.2047192915598" fill="none" stroke="black" stroke-width="2.5" /><polyline fill="black" points="200.617,482.602 209.8168,478.6824 208.6114,488.6095 200.617,482.602" stroke="none" /><circle cx="194.4125" cy="481.8487" fill="black" r="2.5" /><path d="M 188.0218013309796 472.5901131473837 21.872370802437683 231.88110693066434" fill="none" stroke="black" stroke-width="2.5" /><polyline fill="black" points="19.032,227.7662 28.0666,232.0531 19.8367,237.7338 19.032,227.7662" stroke="none" /><circle cx="140.8782" cy="461.5458" fill="black" r="2.5" /><path d="M 149.29899255652995 454.0856761874284 464.89561172086115 174.49146923260676" fill="none" stroke="black" stroke-width="2.5" /><polyline fill="black" points="468.6382,171.1759 465.4715,180.6612 458.8403,173.1761 468.6382,171.1759" stroke="none" /><circle cx="93.7584" cy="429.0213" fill="black" r="2.5" /><path d="M 97.74767364703972 418.50236996042565 247.2606950207715 24.268932730210917" fill="none" stroke="black" stroke-width="2.5" /><polyline fill="black" points="249.0337,19.5939 250.6378,29.4644 241.2877,25.9183 249.0337,19.5939" stroke="none" /><circle cx="55.7913" cy="386.1654" fill="black" r="2.5" /><path d="M 66.95930668385974 384.80933969577706 462.1483828041829 336.8246983254746" fill="none" stroke="black" stroke-width="2.5" /><polyline fill="black" points="467.1119,336.222 459.1175,342.2294 457.9121,332.3023 467.1119,336.222" stroke="none" /><circle cx="29.1836" cy="335.4687" fill="black" r="2.5" /><path d="M 29.183642362214016 324.21866067260225 29.183642362213988 178.2813393273978" fill="none" stroke="black" stroke-width="2.5" /><polyline fill="black" points="29.1836,173.2813 34.1836,181.9416 24.1836,181.9416 29.1836,173.2813" stroke="none" /><circle cx="15.4816" cy="279.8775" fill="black" r="2.5" /><path d="M 25.443022690310794 285.10559724613177 351.6603730717965 456.3176704071449" fill="none" stroke="black" stroke-width="2.5" /><polyline fill="black" points="356.0877,458.6413 346.0958,459.0439 350.743,450.1894 356.0877,458.6413" stroke="none" /><circle cx="15.4816" cy="222.6225" fill="black" r="2.5" /><path d="M 20.709778087204576 232.58391872795934 135.65011095411268 451.5844258040388" fill="none" stroke="black" stroke-width="2.5" /><polyline fill="black" points="137.9737,456.0117 129.5218,450.667 138.3764,446.0198 137.9737,456.0117" stroke="none" /><circle cx="29.1836" cy="167.0313" fill="black" r="2.5" /><path d="M 40.35161719581709 165.67530167452543 435.5406933161403 117.69066030422287" fill="none" stroke="black" stroke-width="2.5" /><polyline fill="black" points="440.5042,117.088 432.5098,123.0954 431.3044,113.1683 440.5042,117.088" stroke="none" /><circle cx="55.7913" cy="116.3346" fill="black" r="2.5" /><path d="M 64.21207776718136 123.79475255655966 400.32088541526394 421.5611727854276" fill="none" stroke="black" stroke-width="2.5" /><polyline fill="black" points="404.0634,424.8768 394.2655,422.8765 400.8968,415.3914 404.0634,424.8768" stroke="none" /><circle cx="93.7584" cy="73.4787" fill="black" r="2.5" /><path d="M 93.75836866781106 84.72869730936355 93.7583686678112 417.77130269063656" fill="none" stroke="black" stroke-width="2.5" /><polyline fill="black" points="93.7584,422.7713 88.7584,414.111 98.7584,414.111 93.7584,422.7713" stroke="none" /><circle cx="140.8782" cy="40.9542" fill="black" r="2.5" /><path d="M 152.04622147320813 42.31023156023501 397.57365649858576 72.12265965649111" fill="none" stroke="black" stroke-width="2.5" /><polyline fill="black" points="402.5372,72.7253 393.3374,76.645 394.5428,66.7179 402.5372,72.7253" stroke="none" /><circle cx="194.4125" cy="20.6513" fill="black" r="2.5" /><path d="M 188.02180133097954 29.90988685261627 21.87237080243768 270.6188930693357" fill="none" stroke="black" stroke-width="2.5" /><polyline fill="black" points="19.032,274.7338 19.8367,264.7662 28.0666,270.4469 19.032,274.7338" stroke="none" /></svg>