<?xml version="1.0" encoding="utf-8" ?>
<svg baseProfile="tiny" height="502.5" version="1.2" width="502.5" xmlns="http://www.w3.org/2000/svg" xmlns:ev="http://www.w3.org/2001/xml-events" xmlns:xlink="http://www.w3.org/1999/xlink"><defs /><circle cx="251.25" cy="251.25" fill="none" r="250.0" stroke="black" stroke-width="2.5" /><circle cx="251.25" cy="251.25" fill="none" r="75.5208" stroke="black" stroke-width="0.3125" /><line stroke="black" stroke-width="0.3125" x1="245.9635" x2="256.5365" y1="251.25" y2="251.25" /><line stroke="black" stroke-width="0.3125" x1="251.25" x2="251.25" y1="245.9635" y2="256.5365" /><circle cx="251.25" cy="13.75" fill="black" r="2.5" /><path d="M 260.50856849130366 20.140728400725504 464.0577891464824 160.6406109266723" fill="none" stroke="black" stroke-width="2.5" /><polyline fill="black" points="468.1727,163.4809 458.2051,162.6763 463.8858,154.4464 468.1727,163.4809" stroke="none" /><circle cx="308.0875" cy="20.6513" fill="black" r="2.5" /><path d="M 310.77977149153 31.574413807355718 406.04933010895377 418.09820724459337" fill="none" stroke="black" stroke-width="2.5" /><polyline fill="black" points="407.2459,422.9529 400.3187,415.7409 410.0281,413.3477 407.2459,422.9529" stroke="none" /><circle cx="361.6218" cy="40.9542" fill="black" r="2.5" /><path d="M 355.2310249596695 50.212762398666285 100.1490970685367 419.7627341993329" fill="none" stroke="black" stroke-width="2.5" /><polyline fill="black" points="97.3088,423.8777 98.1134,413.9101 106.3433,419.5907 97.3088,423.8777" stroke="none" /><circle cx="408.7416" cy="73.4787" fill="black" r="2.5" /><path d="M 412.7309363114174 83.99763003957442 483.0290526190593 269.35852883042827" fill="none" stroke="black" stroke-width="2.5" /><polyline fill="black" points="484.8021,274.0336 477.056,267.7092 486.4062,264.1631 484.8021,274.0336" stroke="none" /><circle cx="446.7087" cy="116.3346" fill="black" r="2.5" /><path d="M 436.1897354195325 120.323927630579 26.000575131923096 275.88815658141084" fill="none" stroke="black" stroke-width="2.5" /><polyline fill="black" points="21.3255,277.6612 27.6499,269.9151 31.196,279.2653 21.3255,277.6612" stroke="none" /><circle cx="473.3164" cy="167.0313" fill="black" r="2.5" /><path d="M 469.32705265855753 177.5502720576087 365.61105833962364 451.0268733624264" fill="none" stroke="black" stroke-width="2.5" /><polyline fill="black" points="363.838,455.702 362.2339,445.8315 371.5841,449.3775 363.838,455.702" stroke="none" /><circle cx="487.0184" cy="222.6225" fill="black" r="2.5" /><path d="M 476.4994248680769 218.63323346013226 104.27730139802198 77.46800228859207" fill="none" stroke="black" stroke-width="2.5" /><polyline fill="black" points="99.6022,75.695 109.4727,74.0909 105.9267,83.441 99.6022,75.695" stroke="none" /><circle cx="487.0184" cy="279.8775" fill="black" r="2.5" /><path d="M 477.75978910698416 286.26818996136467 203.67109822300873 475.4579532379619" fill="none" stroke="black" stroke-width="2.5" /><polyline fill="black" points="199.5562,478.2983 203.8431,469.2638 209.5238,477.4936 199.5562,478.2983" stroke="none" /><circle cx="473.3164" cy="335.4687" fill="black" r="2.5" /><path d="M 469.32705265855753 324.9497279423913 365.6110583396235 51.47312663757357" fill="none" stroke="black" stroke-width="2.5" /><polyline fill="black" points="363.838,46.798 371.5841,53.1225 362.2339,56.6685 363.838,46.798" stroke="none" /><circle cx="446.7087" cy="386.1654" fill="black" r="2.5" /><path d="M 442.7193631705149 375.6464446184386 312.07677524752347 31.17025109152355" fill="none" stroke="black" stroke-width="2.5" /><polyline fill="black" points="310.3038,26.4952 318.0498,32.8196 308.6996,36.3657 310.3038,26.4952" stroke="none" /><circle cx="408.7416" cy="429.0213" fill="black" r="2.5" /><path d="M 416.2017612373978 420.6005567737116 439.2485382445344 394.5861232655744" fill="none" stroke="black" stroke-width="2.5" /><polyline fill="black" points="442.5642,390.8436 440.5639,400.6415 433.0788,394.0102 442.5642,390.8436" stroke="none" /><circle cx="361.6218" cy="461.5458" fill="black" r="2.5" /><path d="M 351.1028206301842 457.5565011134088 39.70257509242494 339.45796565183076" fill="none" stroke="black" stroke-width="2.5" /><polyline fill="black" points="35.0275,337.6849 44.898,336.0808 41.3519,345.431 35.0275,337.6849" stroke="none" /><circle cx="308.0875" cy="481.8487" fill="black" r="2.5" /><path d="M 296.91949543469184 480.49264398581494 152.04622147320816 462.90184374550984" fill="none" stroke="black" stroke-width="2.5" /><polyline fill="black" points="147.0827,462.2992 156.2825,458.3795 155.0771,468.3066 147.0827,462.2992" stroke="none" /><circle cx="251.25" cy="488.75" fill="black" r="2.5" /><path d="M 255.23930497922845 478.2310672697891 404.7523263529604 83.99763003957442" fill="none" stroke="black" stroke-width="2.5" /><polyline fill="black" points="406.5254,79.3225 408.1295,89.1931 398.7793,85.647 406.5254,79.3225" stroke="none" /><circle cx="194.4125" cy="481.8487" fill="black" r="2.5" /><path d="M 194.4125297317051 470.59868163868737 194.41252973170504 31.901318361312633" fill="none" stroke="black" stroke-width="2.5" /><polyline fill="black" points="194.4125,26.9013 199.4125,35.5616 189.4125,35.5616 194.4125,26.9013" stroke="none" /><circle cx="140.8782" cy="461.5458" fill="black" r="2.5" /><path d="M 132.45750072268018 454.0856761874285 64.21207776718151 393.6255072538584" fill="none" stroke="black" stroke-width="2.5" /><polyline fill="black" points="60.4695,390.3099 70.2674,392.3102 63.6362,399.7953 60.4695,390.3099" stroke="none" /><circle cx="93.7584" cy="429.0213" fill="black" r="2.5" /><path d="M 97.74767364703972 418.50236996042565 247.2606950207715 24.268932730210917" fill="none" stroke="black" stroke-width="2.5" /><polyline fill="black" points="249.0337,19.5939 250.6378,29.4644 241.2877,25.9183 249.0337,19.5939" stroke="none" /><circle cx="55.7913" cy="386.1654" fill="black" r="2.5" /><path d="M 66.31026458046755 390.154682327878 297.56853753808406 477.85937665945886" fill="none" stroke="black" stroke-width="2.5" /><polyline fill="black" points="302.2436,479.6324 292.3731,481.2365 295.9192,471.8864 302.2436,479.6324" stroke="none" /><circle cx="29.1836" cy="335.4687" fill="black" r="2.5" /><path d="M 39.14502265081263 330.24052498710984 436.7472878611448 121.56275833684288" fill="none" stroke="black" stroke-width="2.5" /><polyline fill="black" points="441.1746,119.2391 435.8299,127.691 431.1827,118.8365 441.1746,119.2391" stroke="none" /><circle cx="15.4816" cy="279.8775" fill="black" r="2.5" /><path d="M 18.173943624947196 268.9543661145962 53.09903062702144 127.2577180973938" fill="none" stroke="black" stroke-width="2.5" /><polyline fill="black" points="54.2956,122.403 57.0778,132.0082 47.3684,129.615 54.2956,122.403" stroke="none" /><circle cx="15.4816" cy="222.6225" fill="black" r="2.5" /><path d="M 22.941772306921123 231.0432843562856 243.78987009479096 480.3292540830751" fill="none" stroke="black" stroke-width="2.5" /><polyline fill="black" points="247.1055,484.0718 237.6201,480.9051 245.1052,474.2739 247.1055,484.0718" stroke="none" /><circle cx="29.1836" cy="167.0313" fill="black" r="2.5" /><path d="M 39.70257509242491 171.02064430662634 462.79742490757513 331.4793556933737" fill="none" stroke="black" stroke-width="2.5" /><polyline fill="black" points="467.4725,333.2524 457.602,334.8565 461.1481,325.5063 467.4725,333.2524" stroke="none" /><circle cx="55.7913" cy="116.3346" fill="black" r="2.5" /><path d="M 51.802026871027934 126.85355538156163 19.4709473809407 212.1036057091498" fill="none" stroke="black" stroke-width="2.5" /><polyline fill="black" points="17.6979,216.7787 16.0938,206.9082 25.444,210.4542 17.6979,216.7787" stroke="none" /><circle cx="93.7584" cy="73.4787" fill="black" r="2.5" /><path d="M 103.01693715911469 67.08796890863805 131.6196781483014 47.34492230808812" fill="none" stroke="black" stroke-width="2.5" /><polyline fill="black" points="135.7346,44.5046 131.4477,53.5391 125.767,45.3093 135.7346,44.5046" stroke="none" /><circle cx="140.8782" cy="40.9542" fill="black" r="2.5" /><path d="M 150.83962692820367 46.18232959285502 477.0569773096892 217.3944027538684" fill="none" stroke="black" stroke-width="2.5" /><polyline fill="black" points="481.4843,219.718 471.4924,220.1207 476.1396,211.2661 481.4843,219.718" stroke="none" /><circle cx="194.4125" cy="20.6513" fill="black" r="2.5" /><path d="M 185.99178381478015 28.11144826652158 37.604388279138874 159.57120942218884" fill="none" stroke="black" stroke-width="2.5" /><polyline fill="black" points="33.8618,162.8868 37.0285,153.4015 43.6597,160.8866 33.8618,162.8868" stroke="none" /></svg>